<svg width="288" height="192" viewBox="0 0 288 192" fill="none" xmlns="http://www.w3.org/2000/svg">
<path d="M163.958 160.412C162.147 160.43 160.343 160.216 158.602 159.775C154.008 158.553 149.897 155.145 147.334 150.439C145.037 146.223 144.115 141.58 143.23 137.065C143.22 137.025 143.221 136.983 143.23 136.943C143.24 136.903 143.259 136.865 143.286 136.831C143.313 136.798 143.347 136.769 143.387 136.748C143.427 136.727 143.472 136.714 143.518 136.708C143.563 136.701 143.609 136.702 143.653 136.71C143.698 136.719 143.74 136.735 143.778 136.758C143.815 136.781 143.847 136.811 143.872 136.845C143.896 136.879 143.913 136.917 143.921 136.957C144.799 141.415 145.706 146.013 147.96 150.152C150.444 154.706 154.397 157.986 158.803 159.164C162.007 160.011 165.499 159.801 168.797 159.457C175.86 158.718 180.166 156.782 181.973 153.547C182.038 153.42 182.102 153.305 182.146 153.197C181.015 153.477 179.899 153.833 178.805 154.197C177.898 154.489 176.962 154.789 176.026 155.05C171.47 156.314 166.638 156.594 161.935 155.865C159.667 155.508 158.285 154.54 158.234 153.279C158.184 152.018 159.415 151.012 161.611 150.452C167.628 148.905 174.002 148.802 180.079 150.152C181.807 150.535 182.758 151.171 182.959 152.095C182.981 152.196 182.995 152.298 183.002 152.401C183.276 152.343 183.55 152.292 183.83 152.248C186.754 151.789 189.806 152.05 192.758 152.299C196.949 152.655 200.909 152.993 204.48 151.439C204.564 151.404 204.66 151.4 204.748 151.427C204.836 151.454 204.908 151.511 204.948 151.585C204.969 151.622 204.981 151.661 204.985 151.702C204.988 151.742 204.982 151.783 204.967 151.822C204.952 151.86 204.929 151.896 204.899 151.926C204.868 151.957 204.831 151.982 204.79 151.999C201.038 153.623 196.798 153.273 192.694 152.916C189.814 152.668 186.782 152.413 183.953 152.859C183.607 152.91 183.233 152.98 182.923 153.05C182.839 153.332 182.72 153.605 182.57 153.865C180.655 157.304 176.162 159.349 168.854 160.119C167.23 160.303 165.596 160.401 163.958 160.412V160.412ZM171.468 149.815C168.199 149.816 164.946 150.225 161.806 151.031C160.927 151.254 158.882 151.929 158.926 153.248C158.969 154.566 161.323 155.158 162.043 155.241C166.632 155.965 171.35 155.708 175.802 154.489C176.724 154.235 177.653 153.935 178.546 153.649C179.777 153.248 181.03 152.84 182.318 152.541C182.333 152.433 182.333 152.324 182.318 152.216C182.153 151.541 181.368 151.063 179.921 150.738C177.157 150.123 174.318 149.813 171.468 149.815V149.815Z" fill="#E6E7E8"/>
<path d="M248.753 62.9468H201.888C199.995 62.9468 198.461 64.3041 198.461 65.9783V154.63C198.461 156.304 199.995 157.661 201.888 157.661H248.753C250.646 157.661 252.18 156.304 252.18 154.63V65.9783C252.18 64.3041 250.646 62.9468 248.753 62.9468Z" fill="white"/>
<path d="M248.753 157.967H201.888C200.888 157.965 199.929 157.613 199.222 156.987C198.515 156.362 198.117 155.514 198.115 154.63V65.9719C198.117 65.0874 198.515 64.2395 199.222 63.6141C199.929 62.9886 200.888 62.6364 201.888 62.6348H248.753C249.754 62.6348 250.714 62.9861 251.423 63.6118C252.132 64.2375 252.531 65.0863 252.533 65.9719V154.63C252.531 155.515 252.132 156.364 251.423 156.99C250.714 157.615 249.754 157.967 248.753 157.967V157.967ZM201.888 63.2525C201.073 63.2525 200.291 63.539 199.714 64.049C199.138 64.559 198.814 65.2507 198.814 65.9719V154.63C198.814 155.351 199.138 156.042 199.714 156.552C200.291 157.062 201.073 157.349 201.888 157.349H248.753C249.568 157.349 250.35 157.062 250.927 156.552C251.503 156.042 251.827 155.351 251.827 154.63V65.9719C251.827 65.2507 251.503 64.559 250.927 64.049C250.35 63.539 249.568 63.2525 248.753 63.2525H201.888Z" fill="#231F20"/>
<path d="M249.358 71.5126H201.283V144.402H249.358V71.5126Z" fill="#3A86FF"/>
<path d="M229.896 147.949H220.745C219.584 147.949 218.642 148.781 218.642 149.809V152.91C218.642 153.937 219.584 154.77 220.745 154.77H229.896C231.057 154.77 231.998 153.937 231.998 152.91V149.809C231.998 148.781 231.057 147.949 229.896 147.949Z" fill="white"/>
<path d="M229.889 155.075H220.752C220.101 155.075 219.476 154.847 219.016 154.439C218.555 154.032 218.297 153.48 218.297 152.904V149.815C218.297 149.239 218.555 148.687 219.016 148.279C219.476 147.872 220.101 147.643 220.752 147.643H229.889C230.212 147.642 230.532 147.698 230.831 147.807C231.129 147.915 231.401 148.075 231.63 148.277C231.858 148.479 232.04 148.718 232.164 148.982C232.287 149.246 232.351 149.529 232.351 149.815V152.904C232.349 153.48 232.089 154.033 231.627 154.44C231.166 154.847 230.541 155.075 229.889 155.075ZM220.752 148.261C220.286 148.261 219.839 148.425 219.51 148.716C219.18 149.008 218.995 149.403 218.995 149.815V152.904C218.995 153.316 219.18 153.711 219.51 154.003C219.839 154.294 220.286 154.458 220.752 154.458H229.889C230.355 154.458 230.802 154.294 231.131 154.003C231.461 153.711 231.646 153.316 231.646 152.904V149.815C231.646 149.403 231.461 149.008 231.131 148.716C230.802 148.425 230.355 148.261 229.889 148.261H220.752Z" fill="#E6E7E8"/>
<path d="M230.177 67.3412H216.497C216.451 67.342 216.405 67.3347 216.362 67.3198C216.32 67.3048 216.281 67.2824 216.248 67.2539C216.215 67.2255 216.189 67.1915 216.171 67.154C216.153 67.1164 216.144 67.0762 216.144 67.0355C216.144 66.9527 216.181 66.8733 216.247 66.8148C216.314 66.7563 216.403 66.7234 216.497 66.7234H230.177C230.223 66.7234 230.268 66.7315 230.311 66.7473C230.353 66.763 230.392 66.7861 230.424 66.8152C230.456 66.8443 230.481 66.8787 230.498 66.9165C230.515 66.9544 230.523 66.9948 230.522 67.0355C230.523 67.0759 230.515 67.116 230.498 67.1535C230.481 67.191 230.456 67.225 230.423 67.2536C230.391 67.2821 230.353 67.3046 230.31 67.3197C230.268 67.3347 230.222 67.342 230.177 67.3412V67.3412Z" fill="#E6E7E8"/>
<path d="M233.928 67.3412H232.092C232 67.3412 231.912 67.309 231.848 67.2516C231.783 67.1943 231.746 67.1166 231.746 67.0355C231.746 66.9538 231.783 66.8754 231.847 66.817C231.912 66.7587 232 66.7251 232.092 66.7234H233.928C234.022 66.7234 234.111 66.7563 234.177 66.8148C234.244 66.8733 234.281 66.9527 234.281 67.0355C234.281 67.0762 234.272 67.1164 234.254 67.154C234.236 67.1915 234.21 67.2255 234.177 67.2539C234.144 67.2824 234.105 67.3048 234.062 67.3198C234.02 67.3347 233.974 67.342 233.928 67.3412V67.3412Z" fill="#E6E7E8"/>
<path d="M243.252 117.309H207.36C206.646 117.309 205.961 117.058 205.456 116.612C204.951 116.165 204.667 115.559 204.667 114.928V99.248C204.666 98.9347 204.735 98.6243 204.87 98.3345C205.005 98.0448 205.203 97.7815 205.453 97.5597C205.703 97.3378 206.001 97.1618 206.328 97.0417C206.655 96.9216 207.006 96.8598 207.36 96.8598H243.223C243.939 96.8598 244.626 97.1114 245.132 97.5593C245.639 98.0071 245.923 98.6146 245.923 99.248V114.928C245.921 115.555 245.64 116.157 245.14 116.603C244.64 117.049 243.962 117.303 243.252 117.309V117.309ZM207.36 97.4839C206.831 97.4839 206.324 97.6698 205.95 98.0006C205.576 98.3314 205.366 98.7801 205.366 99.248V114.928C205.366 115.395 205.576 115.844 205.95 116.175C206.324 116.506 206.831 116.692 207.36 116.692H243.223C243.752 116.692 244.259 116.506 244.633 116.175C245.008 115.844 245.218 115.395 245.218 114.928V99.248C245.218 98.7801 245.008 98.3314 244.633 98.0006C244.259 97.6698 243.752 97.4839 243.223 97.4839H207.36Z" fill="white"/>
<path d="M205.042 115.507C204.969 115.506 204.899 115.485 204.841 115.447C204.782 115.41 204.738 115.357 204.715 115.297C204.691 115.236 204.689 115.171 204.709 115.109C204.729 115.048 204.77 114.993 204.826 114.953L222.595 102.515C222.664 102.469 222.75 102.446 222.836 102.452C222.922 102.458 223.003 102.492 223.063 102.547L233.669 112.278C233.734 112.337 233.771 112.416 233.771 112.498C233.771 112.58 233.734 112.659 233.669 112.718C233.637 112.746 233.599 112.769 233.557 112.784C233.515 112.8 233.47 112.808 233.424 112.808C233.379 112.808 233.333 112.8 233.291 112.784C233.249 112.769 233.211 112.746 233.179 112.718L222.797 103.165L205.272 115.431C205.209 115.481 205.127 115.508 205.042 115.507V115.507Z" fill="white"/>
<path d="M245.599 112.386C245.55 112.386 245.501 112.376 245.456 112.357C245.412 112.339 245.372 112.312 245.34 112.278L239.45 106.374L232.718 111.348C232.648 111.401 232.556 111.426 232.465 111.419C232.373 111.412 232.288 111.373 232.229 111.31C232.17 111.248 232.141 111.167 232.149 111.086C232.157 111.005 232.201 110.929 232.272 110.877L239.263 105.706C239.328 105.65 239.414 105.619 239.504 105.619C239.594 105.619 239.681 105.65 239.746 105.706L245.858 111.839C245.891 111.867 245.916 111.901 245.934 111.938C245.951 111.975 245.96 112.015 245.96 112.055C245.96 112.096 245.951 112.135 245.934 112.173C245.916 112.21 245.891 112.243 245.858 112.272C245.829 112.308 245.79 112.337 245.744 112.357C245.699 112.377 245.65 112.387 245.599 112.386Z" fill="white"/>
<path d="M233.417 105.171C232.876 105.172 232.348 105.031 231.898 104.767C231.448 104.502 231.097 104.125 230.89 103.684C230.682 103.242 230.628 102.757 230.733 102.288C230.838 101.819 231.098 101.388 231.48 101.05C231.862 100.712 232.349 100.482 232.879 100.389C233.409 100.297 233.958 100.345 234.457 100.528C234.956 100.712 235.382 101.022 235.682 101.42C235.981 101.818 236.14 102.286 236.138 102.763C236.137 103.401 235.849 104.013 235.339 104.464C234.829 104.915 234.138 105.169 233.417 105.171V105.171ZM233.417 100.968C233.015 100.966 232.622 101.071 232.287 101.267C231.952 101.464 231.691 101.744 231.536 102.072C231.381 102.4 231.34 102.761 231.417 103.11C231.495 103.459 231.688 103.779 231.971 104.031C232.255 104.283 232.617 104.455 233.011 104.524C233.405 104.594 233.813 104.559 234.185 104.423C234.556 104.288 234.874 104.057 235.097 103.762C235.321 103.466 235.44 103.119 235.44 102.763C235.44 102.288 235.227 101.832 234.848 101.496C234.469 101.159 233.954 100.969 233.417 100.968V100.968Z" fill="white"/>
<path d="M210.154 132.537H208.217C206.857 132.537 205.754 133.512 205.754 134.715V137.39C205.754 138.593 206.857 139.568 208.217 139.568H210.154C211.514 139.568 212.616 138.593 212.616 137.39V134.715C212.616 133.512 211.514 132.537 210.154 132.537Z" fill="white"/>
<path d="M220.91 132.537H218.974C217.614 132.537 216.511 133.512 216.511 134.715V137.39C216.511 138.593 217.614 139.568 218.974 139.568H220.91C222.27 139.568 223.373 138.593 223.373 137.39V134.715C223.373 133.512 222.27 132.537 220.91 132.537Z" fill="white"/>
<path d="M231.667 132.537H229.73C228.37 132.537 227.268 133.512 227.268 134.715V137.39C227.268 138.593 228.37 139.568 229.73 139.568H231.667C233.027 139.568 234.13 138.593 234.13 137.39V134.715C234.13 133.512 233.027 132.537 231.667 132.537Z" fill="white"/>
<path d="M242.424 132.537H240.487C239.127 132.537 238.025 133.512 238.025 134.715V137.39C238.025 138.593 239.127 139.568 240.487 139.568H242.424C243.784 139.568 244.886 138.593 244.886 137.39V134.715C244.886 133.512 243.784 132.537 242.424 132.537Z" fill="white"/>
<path d="M245.088 77.5883H205.553C205.507 77.5892 205.461 77.5819 205.418 77.5669C205.376 77.5519 205.337 77.5295 205.304 77.5011C205.271 77.4726 205.245 77.4386 205.227 77.4011C205.209 77.3636 205.2 77.3233 205.2 77.2826C205.2 77.1998 205.237 77.1205 205.303 77.0619C205.369 77.0034 205.459 76.9705 205.553 76.9705H245.088C245.182 76.9705 245.271 77.0034 245.337 77.0619C245.404 77.1205 245.441 77.1998 245.441 77.2826C245.441 77.3233 245.432 77.3636 245.414 77.4011C245.396 77.4386 245.37 77.4726 245.337 77.5011C245.304 77.5295 245.265 77.5519 245.222 77.5669C245.18 77.5819 245.134 77.5892 245.088 77.5883V77.5883Z" fill="white"/>
<path d="M245.088 82.5176H205.553C205.457 82.5176 205.366 82.4841 205.298 82.4243C205.231 82.3646 205.193 82.2836 205.193 82.1992C205.193 82.1147 205.231 82.0337 205.298 81.974C205.366 81.9143 205.457 81.8808 205.553 81.8808H245.088C245.184 81.8808 245.275 81.9143 245.343 81.974C245.41 82.0337 245.448 82.1147 245.448 82.1992C245.448 82.2836 245.41 82.3646 245.343 82.4243C245.275 82.4841 245.184 82.5176 245.088 82.5176Z" fill="white"/>
<path d="M245.088 87.4469H205.553C205.459 87.4469 205.369 87.414 205.303 87.3555C205.237 87.297 205.2 87.2176 205.2 87.1349C205.2 87.0942 205.209 87.0539 205.227 87.0164C205.245 86.9789 205.271 86.9449 205.304 86.9164C205.337 86.888 205.376 86.8656 205.418 86.8506C205.461 86.8356 205.507 86.8283 205.553 86.8292H245.088C245.134 86.8283 245.18 86.8356 245.222 86.8506C245.265 86.8656 245.304 86.888 245.337 86.9164C245.37 86.9449 245.396 86.9789 245.414 87.0164C245.432 87.0539 245.441 87.0942 245.441 87.1349C245.441 87.2176 245.404 87.297 245.337 87.3555C245.271 87.414 245.182 87.4469 245.088 87.4469Z" fill="white"/>
<path d="M245.088 92.3762H205.553C205.457 92.3762 205.366 92.3427 205.298 92.283C205.231 92.2233 205.193 92.1423 205.193 92.0578C205.193 91.9734 205.231 91.8924 205.298 91.8326C205.366 91.7729 205.457 91.7394 205.553 91.7394H245.088C245.184 91.7394 245.275 91.7729 245.343 91.8326C245.41 91.8924 245.448 91.9734 245.448 92.0578C245.448 92.1423 245.41 92.2233 245.343 92.283C245.275 92.3427 245.184 92.3762 245.088 92.3762Z" fill="white"/>
<path d="M245.088 122.907H205.553C205.457 122.907 205.366 122.874 205.298 122.814C205.231 122.754 205.193 122.673 205.193 122.589C205.193 122.505 205.231 122.424 205.298 122.364C205.366 122.304 205.457 122.271 205.553 122.271H245.088C245.184 122.271 245.275 122.304 245.343 122.364C245.41 122.424 245.448 122.505 245.448 122.589C245.448 122.673 245.41 122.754 245.343 122.814C245.275 122.874 245.184 122.907 245.088 122.907Z" fill="white"/>
<path d="M245.088 127.843H205.553C205.507 127.844 205.461 127.837 205.418 127.822C205.376 127.807 205.337 127.784 205.304 127.756C205.271 127.727 205.245 127.693 205.227 127.656C205.209 127.618 205.2 127.578 205.2 127.537C205.2 127.455 205.237 127.375 205.303 127.317C205.369 127.258 205.459 127.225 205.553 127.225H245.088C245.182 127.225 245.271 127.258 245.337 127.317C245.404 127.375 245.441 127.455 245.441 127.537C245.441 127.578 245.432 127.618 245.414 127.656C245.396 127.693 245.37 127.727 245.337 127.756C245.304 127.784 245.265 127.807 245.222 127.822C245.18 127.837 245.134 127.844 245.088 127.843Z" fill="white"/>
<path d="M237.722 29.6707C237.722 29.6707 238.608 26.3336 237.787 24.4357C237.546 23.9005 237.119 23.4466 236.568 23.1389C236.017 22.8312 235.37 22.6855 234.72 22.7226C234.72 22.7226 228.758 21.5507 227.038 20.1751L227.815 22.6079C226.778 22.5435 225.765 22.2989 224.834 21.8883C224.714 22.3042 224.722 22.741 224.858 23.1532C224.993 23.5654 225.251 23.9379 225.605 24.2319C225.176 24.4139 224.706 24.5083 224.23 24.5083C223.754 24.5083 223.284 24.4139 222.854 24.2319C222.854 24.2319 224.489 27.7793 228.29 27.4163C230.767 27.0915 235.152 30.4031 237.722 29.6707Z" fill="white"/>
<path d="M236.88 30.0911C235.519 30.0911 233.928 29.4542 232.373 28.8174C230.818 28.1805 229.356 27.5436 228.312 27.6774C224.287 28.0913 222.552 24.3721 222.509 24.3338C222.483 24.2738 222.479 24.2082 222.497 24.146C222.515 24.0838 222.554 24.028 222.609 23.9862C222.664 23.9444 222.732 23.9187 222.805 23.9125C222.877 23.9063 222.95 23.92 223.013 23.9517C223.612 24.2283 224.309 24.2877 224.957 24.1173C224.694 23.7886 224.515 23.4134 224.432 23.0177C224.348 22.6219 224.363 22.2149 224.474 21.8246C224.486 21.781 224.509 21.7405 224.541 21.7062C224.574 21.6719 224.615 21.6449 224.662 21.6272C224.708 21.6098 224.758 21.6009 224.809 21.6009C224.86 21.6009 224.91 21.6098 224.957 21.6272C225.708 21.9328 226.502 22.1471 227.318 22.264L226.678 20.2643C226.658 20.1993 226.662 20.1303 226.689 20.0674C226.716 20.0044 226.765 19.9507 226.829 19.914C226.893 19.8789 226.969 19.8637 227.045 19.8706C227.12 19.8775 227.191 19.9062 227.246 19.9522C228.802 21.2259 234.151 22.3022 234.727 22.4233C235.448 22.3816 236.164 22.5444 236.773 22.888C237.382 23.2317 237.851 23.7382 238.111 24.3338C238.968 26.2954 238.111 29.6071 238.061 29.7472C238.049 29.7986 238.023 29.8464 237.984 29.8856C237.944 29.9248 237.894 29.954 237.838 29.9701C237.528 30.0556 237.204 30.0965 236.88 30.0911V30.0911ZM228.557 27.0214C229.738 27.0214 231.163 27.6137 232.668 28.2314C234.389 28.9447 236.167 29.6771 237.427 29.4224C237.593 28.7218 238.147 26.0916 237.463 24.5504C237.248 24.072 236.866 23.6667 236.373 23.3931C235.879 23.1195 235.301 22.9917 234.72 23.0283H234.612C234.396 22.9837 229.91 22.0985 227.606 20.9203L228.118 22.5188C228.132 22.5653 228.134 22.6141 228.124 22.6616C228.114 22.709 228.092 22.7538 228.06 22.7926C228.027 22.8305 227.984 22.8611 227.936 22.8821C227.887 22.9031 227.833 22.9139 227.779 22.9136C226.844 22.8644 225.927 22.6659 225.072 22.3277C225.03 22.6357 225.074 22.9479 225.2 23.2375C225.325 23.5271 225.528 23.7854 225.792 23.9899C225.835 24.0238 225.869 24.0663 225.89 24.1139C225.912 24.1615 225.92 24.2128 225.914 24.2638C225.909 24.3156 225.888 24.3652 225.853 24.4076C225.819 24.45 225.773 24.4839 225.72 24.5058C225.044 24.7753 224.293 24.8639 223.56 24.7605C224.222 25.7158 225.72 27.308 228.233 27.0469C228.34 27.0318 228.448 27.0233 228.557 27.0214V27.0214Z" fill="#231F20"/>
<path d="M242.755 57.5972C242.755 57.5972 247.954 47.5411 247.32 40.9496C246.686 34.3581 241.805 33.9441 240.12 33.8613C238.435 33.7785 229.457 32.7086 226.181 36.2559C222.905 39.8032 223.754 56.8903 223.754 56.8903L242.755 57.5972Z" fill="#3A86FF"/>
<path d="M223.373 53.5085C219.549 55.0555 215.898 56.9147 212.465 59.062C209.426 60.8834 207.706 80.1103 207.706 80.1103C207.706 80.1103 208.332 83.1991 212.371 82.715L223.006 61.2973C223.006 61.2973 226.8 53.4257 223.373 53.5085Z" fill="#231F20"/>
<path d="M211.543 83.059C210.571 83.0809 209.62 82.8013 208.856 82.2686C208.092 81.7359 207.563 80.9837 207.36 80.1421C207.356 80.1168 207.356 80.0911 207.36 80.0657C207.54 78.0787 209.189 60.6414 212.27 58.7881C215.729 56.6374 219.404 54.7741 223.25 53.2219C223.291 53.2125 223.333 53.2125 223.373 53.2219C223.642 53.2039 223.912 53.2485 224.156 53.3513C224.4 53.4541 224.609 53.6115 224.762 53.8078C226.109 55.5592 223.625 60.8133 223.322 61.4502L212.688 82.8743C212.664 82.9223 212.626 82.964 212.578 82.9952C212.53 83.0265 212.474 83.0462 212.414 83.0526C212.125 83.0722 211.833 83.0744 211.543 83.059ZM208.08 80.0784C208.159 80.4096 208.85 82.7214 212.155 82.4157L222.71 61.1636C223.43 59.6351 225.158 55.3809 224.201 54.1581C224.121 54.0553 224.014 53.972 223.888 53.9163C223.762 53.8606 223.622 53.8342 223.481 53.8397C219.705 55.3846 216.091 57.2217 212.681 59.3294C210.29 60.7242 208.541 74.7288 208.08 80.0784Z" fill="#231F20"/>
<path d="M243.18 55.4828C243.18 55.4828 227.909 55.8713 224.316 55.4064C224.316 55.4064 224.114 55.4446 221.479 59.737C218.844 64.0295 222.631 83.6512 222.631 83.6512C222.631 83.6512 226.102 86.8992 228.845 86.4343L232.092 64.0613C232.092 64.0613 237.629 64.2078 240.732 62.259C242.863 60.8898 242.77 57.9666 243.18 55.4828Z" fill="#231F20"/>
<path d="M228.283 86.791C225.533 86.791 222.523 83.9888 222.372 83.8614C222.325 83.8177 222.295 83.762 222.286 83.7022C222.127 82.8997 218.506 63.9594 221.17 59.5906C223.834 55.2217 224.05 55.1325 224.244 55.1325H224.366C227.887 55.5974 243.022 55.2153 243.173 55.2089C243.224 55.2061 243.276 55.2138 243.324 55.2315C243.372 55.2491 243.414 55.2762 243.448 55.3106C243.482 55.345 243.507 55.3859 243.52 55.4301C243.534 55.4743 243.536 55.5207 243.526 55.5656C243.454 56.0241 243.389 56.5018 243.331 56.9794C243.065 59.132 242.791 61.3547 240.905 62.552C238.169 64.2842 233.647 64.4116 232.402 64.4116L229.19 86.4471C229.181 86.5121 229.149 86.5729 229.099 86.6209C229.048 86.6689 228.982 86.7017 228.91 86.7145C228.704 86.7564 228.494 86.782 228.283 86.791ZM222.955 83.5048C223.438 83.9378 226.253 86.3452 228.528 86.1605L231.746 64.0231C231.756 63.946 231.798 63.875 231.865 63.8251C231.932 63.7752 232.019 63.7503 232.106 63.7556C232.164 63.7556 237.557 63.8703 240.502 62.0106C242.129 60.9726 242.388 58.89 242.662 56.8712C242.705 56.5145 242.748 56.1515 242.798 55.8012C240.336 55.8585 228.06 56.126 224.489 55.7312C224.28 55.9987 223.639 56.8966 221.803 59.8835C219.326 63.8894 222.674 82.0209 222.955 83.5048Z" fill="#231F20"/>
<path d="M226.174 36.2559C226.174 36.2559 223.754 40.3764 222.329 42.4908C220.965 44.3049 219.452 46.027 217.8 47.643C217.8 47.643 206.82 51.0948 206.755 51.2795C206.69 51.4642 207.792 54.7313 207.792 54.7313C207.792 54.7313 219.312 53.9989 221.213 53.2028C223.114 52.4067 226.973 48.49 226.973 48.49L226.174 36.2559Z" fill="#3A86FF"/>
<path d="M230.645 34.046L231.3 37.5615C231.709 38.0833 232.32 38.4553 233.017 38.6077C233.714 38.7601 234.45 38.6825 235.087 38.3894C237.6 37.4086 237.6 35.7273 237.6 35.7273L236.261 29.2313C236.261 29.2313 233.942 28.4352 232.74 24.4357C232.74 24.4357 226.98 24.8242 227.376 26.7284C227.376 26.7284 227.304 30.314 227.916 32.059C228.136 32.5718 228.503 33.025 228.982 33.3735C229.46 33.7221 230.034 33.9539 230.645 34.046V34.046Z" fill="white"/>
<path d="M233.676 38.9881C233.15 38.9733 232.634 38.8506 232.171 38.6296C231.707 38.4085 231.308 38.0952 231.005 37.7143C230.982 37.6785 230.965 37.6399 230.954 37.5997L230.335 34.2816C229.703 34.1699 229.115 33.9135 228.63 33.5381C228.145 33.1626 227.78 32.6811 227.57 32.1418C226.944 30.3649 227.009 26.8558 227.009 26.7093C226.981 26.5344 226.995 26.3562 227.05 26.1863C227.104 26.0164 227.198 25.8583 227.326 25.7222C228.456 24.4485 232.265 24.1428 232.697 24.1173C232.779 24.1118 232.86 24.1317 232.927 24.1735C232.994 24.2154 233.042 24.2766 233.064 24.3466C234.194 28.1104 236.354 28.9256 236.376 28.932C236.431 28.9507 236.48 28.9816 236.518 29.0217C236.556 29.0619 236.581 29.1099 236.592 29.1613L237.931 35.6573C237.931 35.791 237.931 37.6252 235.231 38.6633C234.744 38.8661 234.214 38.9768 233.676 38.9881ZM231.631 37.4405C232.002 37.8854 232.541 38.1976 233.15 38.3203C233.76 38.4431 234.398 38.3681 234.95 38.1092C237.182 37.243 237.24 35.7846 237.24 35.7209L235.937 29.4415C235.346 29.1676 233.532 28.0659 232.466 24.7669C231.214 24.8815 228.614 25.2764 227.873 26.1171C227.8 26.1928 227.748 26.2818 227.719 26.3776C227.691 26.4734 227.687 26.5737 227.707 26.6711C227.707 26.7667 227.65 30.2885 228.24 31.9698C228.43 32.4286 228.755 32.8341 229.182 33.1442C229.608 33.4544 230.121 33.658 230.666 33.7339L230.81 33.7721C230.857 33.7955 230.897 33.8275 230.928 33.866C230.959 33.9045 230.981 33.9485 230.99 33.995L231.631 37.4405Z" fill="#231F20"/>
<path d="M234.72 29.3587C234.748 29.0297 234.894 28.7173 235.138 28.4671C235.376 28.2421 235.656 28.0547 235.966 27.913C236.127 27.8223 236.309 27.7637 236.498 27.741C236.634 27.74 236.768 27.7616 236.894 27.8047C237.189 27.8862 237.443 28.0548 237.614 28.2824C237.727 28.4798 237.783 28.6983 237.78 28.9192C237.8 29.1646 237.781 29.4112 237.722 29.6516C237.66 29.8905 237.544 30.1161 237.383 30.3151C237.221 30.5141 237.015 30.6826 236.779 30.8107C236.301 31.0638 235.731 31.1436 235.188 31.0336" fill="white"/>
<path d="M235.678 31.4158C235.484 31.4138 235.29 31.3924 235.102 31.3521C235.011 31.3324 234.933 31.2819 234.884 31.2115C234.836 31.1411 234.821 31.0565 234.842 30.9763C234.853 30.9368 234.873 30.8996 234.9 30.8669C234.928 30.8342 234.962 30.8066 235.002 30.7859C235.041 30.7651 235.085 30.7515 235.131 30.746C235.176 30.7404 235.223 30.7429 235.267 30.7534C235.722 30.8441 236.198 30.7781 236.599 30.5687C236.994 30.349 237.275 30.0016 237.384 29.6007C237.432 29.3912 237.449 29.1772 237.434 28.9638C237.441 28.7877 237.399 28.6129 237.312 28.4543C237.179 28.2838 236.983 28.1599 236.758 28.1041C236.673 28.0804 236.586 28.0654 236.498 28.0595C236.361 28.0816 236.231 28.1294 236.117 28.1996C235.848 28.321 235.604 28.4826 235.397 28.6772C235.2 28.8759 235.084 29.1269 235.066 29.3905C235.058 29.4727 235.015 29.5492 234.945 29.6039C234.875 29.6585 234.784 29.687 234.691 29.6835C234.645 29.6811 234.6 29.6705 234.559 29.6525C234.517 29.6344 234.48 29.6092 234.45 29.5784C234.42 29.5475 234.397 29.5116 234.383 29.4728C234.369 29.4339 234.363 29.393 234.367 29.3523C234.399 28.9558 234.573 28.5786 234.864 28.276C235.126 28.0167 235.438 27.8009 235.786 27.6392C236.004 27.5196 236.25 27.4455 236.506 27.4226C236.687 27.4222 236.868 27.4502 237.038 27.5054C237.427 27.6085 237.758 27.8355 237.967 28.1423C238.111 28.3881 238.186 28.6614 238.183 28.9384C238.201 29.2114 238.18 29.4854 238.118 29.7535C237.991 30.2297 237.685 30.6538 237.252 30.9577C236.818 31.2616 236.281 31.4274 235.728 31.4285L235.678 31.4158Z" fill="#231F20"/>
<path d="M231.077 28.4161C231.077 28.4161 229.997 30.4031 230.357 30.677C230.717 30.9508 231.617 30.626 231.617 30.626" fill="white"/>
<path d="M230.818 31.091C230.58 31.1015 230.346 31.0384 230.155 30.9126C230.004 30.8044 229.565 30.4859 230.767 28.2824C230.808 28.21 230.878 28.1542 230.964 28.1269C231.05 28.0996 231.145 28.1028 231.228 28.1359C231.27 28.153 231.308 28.1773 231.339 28.2075C231.37 28.2378 231.394 28.2733 231.41 28.3119C231.425 28.3505 231.432 28.3914 231.429 28.4323C231.426 28.4732 231.414 28.5132 231.394 28.5499C231.044 29.1501 230.801 29.7946 230.674 30.4605C230.964 30.4913 231.258 30.4493 231.523 30.3395C231.609 30.3093 231.705 30.3097 231.791 30.3405C231.877 30.3714 231.946 30.4303 231.984 30.505C232.002 30.5431 232.011 30.5838 232.01 30.6249C232.01 30.666 232.001 30.7067 231.983 30.7446C231.964 30.7824 231.938 30.8168 231.905 30.8456C231.872 30.8745 231.833 30.8972 231.79 30.9126C231.48 31.0233 231.151 31.0837 230.818 31.091V31.091Z" fill="#231F20"/>
<path d="M232.854 28.3336C233.044 28.3165 233.176 28.1126 233.149 27.8782C233.122 27.6437 232.946 27.4675 232.756 27.4845C232.566 27.5016 232.434 27.7055 232.461 27.94C232.488 28.1744 232.664 28.3506 232.854 28.3336Z" fill="#231F20"/>
<path d="M229.938 28.7879C230.128 28.772 230.262 28.569 230.237 28.3344C230.212 28.0998 230.038 27.9224 229.848 27.9383C229.658 27.9542 229.524 28.1573 229.549 28.3919C229.574 28.6265 229.748 28.8038 229.938 28.7879Z" fill="#231F20"/>
<path d="M231.394 32.6513C230.734 32.6389 230.083 32.5202 229.471 32.301C229.429 32.2851 229.39 32.2618 229.358 32.2326C229.326 32.2034 229.301 32.1687 229.284 32.1307C229.267 32.0928 229.259 32.0522 229.26 32.0114C229.262 31.9707 229.272 31.9305 229.291 31.8934C229.33 31.8198 229.4 31.7623 229.486 31.7327C229.571 31.7031 229.667 31.7036 229.752 31.7342C229.752 31.7342 231.386 32.371 232.488 31.817C232.776 31.6514 233.018 31.4289 233.192 31.1671C233.367 30.9052 233.471 30.611 233.496 30.3076C233.511 30.2232 233.564 30.1475 233.642 30.0974C233.72 30.0472 233.818 30.0266 233.914 30.0401C234.009 30.0536 234.095 30.1002 234.151 30.1694C234.208 30.2387 234.231 30.3251 234.216 30.4095C234.176 30.8063 234.032 31.1894 233.794 31.5278C233.556 31.8663 233.232 32.1507 232.848 32.3583C232.401 32.5672 231.899 32.6683 231.394 32.6513V32.6513Z" fill="#231F20"/>
<path d="M230.645 34.046C230.645 34.046 233.208 34.1861 234.533 33.2372C234.533 33.2372 233.467 36.4215 231.098 36.4215L230.645 34.046Z" fill="#231F20"/>
<path d="M231.12 36.7718C231.037 36.7724 230.957 36.7461 230.895 36.698C230.832 36.6499 230.792 36.5832 230.782 36.5107L230.328 34.1033C230.318 34.0568 230.321 34.009 230.336 33.9636C230.351 33.9182 230.378 33.8766 230.414 33.8422C230.449 33.8074 230.493 33.7802 230.541 33.7625C230.59 33.7449 230.643 33.7373 230.695 33.7403C230.695 33.7403 233.143 33.8613 234.338 33.0015C234.397 32.9618 234.468 32.9394 234.542 32.9374C234.616 32.9355 234.689 32.9541 234.75 32.9907C234.812 33.0273 234.858 33.08 234.884 33.1414C234.909 33.2028 234.913 33.2697 234.893 33.3327C234.85 33.4664 233.734 36.7336 231.127 36.7718H231.12ZM231.12 34.3708L231.451 36.1285C232.675 35.9438 233.489 34.7593 233.914 33.9441C232.998 34.2367 232.029 34.3791 231.055 34.3644L231.12 34.3708Z" fill="#231F20"/>
<path d="M244.886 35.498C246.938 35.8165 255.24 52.7952 252.396 54.7313C247.961 57.7564 232.524 54.7313 232.524 54.7313L233.784 49.4644C233.784 49.4644 243.706 49.7128 243.864 47.9105C244.022 46.1082 238.104 37.7653 238.867 36.517C239.63 35.2688 244.886 35.498 244.886 35.498Z" fill="#3A86FF"/>
<path d="M234.85 51.1712C233.202 51.264 231.548 51.1935 229.918 50.9611C228.711 50.7018 227.473 50.5756 226.231 50.5853C224.595 50.6542 222.986 50.9798 221.479 51.547C221.415 51.5648 221.358 51.5979 221.314 51.6425C221.17 51.8208 221.515 51.9992 221.767 52.0055C222.421 52.0168 223.074 51.9438 223.704 51.789C222.144 52.2989 220.669 52.993 219.319 53.8524C219.161 53.948 218.995 54.1008 219.067 54.2536C219.139 54.4065 219.456 54.381 219.658 54.2982L223.2 52.8653C222.281 53.1912 221.429 53.6495 220.68 54.2218C220.579 54.3046 220.457 54.4129 220.493 54.5339C220.529 54.6549 220.896 54.7058 221.119 54.6103C222.198 54.1329 223.229 53.5747 224.201 52.9417L222.041 54.432C222.041 54.5848 222.206 54.7186 222.386 54.7249C222.567 54.7149 222.741 54.6621 222.89 54.5721L225.331 53.2984L223.812 54.2409C223.567 54.3874 223.294 54.6294 223.416 54.8778C223.538 55.1262 224.021 55.0688 224.338 54.9478C225.59 54.4676 226.899 54.113 228.24 53.8906C228.707 53.7559 229.19 53.6683 229.68 53.6295C230.434 53.7176 231.178 53.8625 231.905 54.0626C233.014 54.2791 234.115 54.502 235.217 54.6995" fill="white"/>
<path d="M223.769 55.3554C223.663 55.3572 223.558 55.3421 223.459 55.3108C223.378 55.2845 223.303 55.2438 223.24 55.1913C223.177 55.1387 223.127 55.0754 223.092 55.0051C223.06 54.943 223.043 54.8759 223.042 54.8077C222.843 54.9314 222.608 55.0002 222.365 55.0051C222.267 55.0007 222.171 54.9787 222.083 54.9403C221.995 54.902 221.917 54.8482 221.854 54.7822C221.813 54.7396 221.779 54.6925 221.753 54.6421C221.602 54.7186 221.443 54.7886 221.285 54.8587C221.165 54.9172 221.032 54.952 220.895 54.9608C220.758 54.9696 220.621 54.9521 220.493 54.9096C220.419 54.8792 220.355 54.8339 220.305 54.7775C220.255 54.7211 220.221 54.6551 220.205 54.5848C220.19 54.5218 220.19 54.4568 220.205 54.3938L219.816 54.553C219.594 54.656 219.336 54.6788 219.096 54.6167C219.028 54.5951 218.967 54.5613 218.915 54.5174C218.862 54.4735 218.821 54.4206 218.794 54.3619C218.729 54.2409 218.65 53.9288 219.146 53.6168C219.941 53.11 220.779 52.6586 221.652 52.2666C221.524 52.2539 221.402 52.2158 221.293 52.1551C221.185 52.0944 221.093 52.0128 221.026 51.9164C220.986 51.8456 220.969 51.7667 220.977 51.6881C220.985 51.6096 221.016 51.5343 221.069 51.4706C221.145 51.3836 221.247 51.3174 221.364 51.2795C222.907 50.6986 224.556 50.3664 226.231 50.2987C227.343 50.2755 228.454 50.3783 229.536 50.6044L229.99 50.6745C231.598 50.9036 233.231 50.9741 234.857 50.8846V50.8846C234.94 50.8846 235.021 50.913 235.081 50.964C235.141 51.015 235.177 51.0847 235.181 51.1585C235.181 51.233 235.149 51.3047 235.092 51.3592C235.034 51.4136 234.955 51.4466 234.871 51.4514C233.199 51.5382 231.522 51.4656 229.867 51.2349L229.406 51.1585C228.373 50.9444 227.314 50.8439 226.253 50.8592C224.739 50.9268 223.247 51.2152 221.839 51.7126C222.443 51.7241 223.044 51.6554 223.625 51.5088C223.705 51.4851 223.793 51.4906 223.868 51.5241C223.944 51.5575 224.001 51.6161 224.028 51.6871C224.055 51.758 224.049 51.8355 224.011 51.9023C223.973 51.9692 223.907 52.0201 223.826 52.0437C222.327 52.5326 220.907 53.192 219.6 54.0053L222.242 52.9353C222.516 52.8143 222.79 52.6997 223.07 52.6042C223.148 52.5746 223.235 52.5734 223.313 52.6009C223.392 52.6284 223.455 52.6822 223.488 52.7506C223.521 52.8191 223.523 52.8964 223.492 52.9657C223.461 53.0349 223.4 53.0905 223.322 53.12L222.523 53.4448C221.986 53.6927 221.479 53.9894 221.011 54.3301C222.065 53.8637 223.069 53.316 224.014 52.6933C224.047 52.6709 224.085 52.6546 224.126 52.6454C224.167 52.6361 224.209 52.6341 224.25 52.6394C224.292 52.6448 224.332 52.6573 224.368 52.6764C224.404 52.6955 224.435 52.7207 224.46 52.7506C224.486 52.7798 224.505 52.8133 224.516 52.849C224.527 52.8847 224.53 52.922 224.524 52.9587C224.519 52.9954 224.505 53.0308 224.484 53.0629C224.464 53.0949 224.436 53.123 224.402 53.1455L222.66 54.3173H222.703L225.144 53.0436C225.215 53.0153 225.295 53.0106 225.369 53.0302C225.444 53.0498 225.508 53.0924 225.55 53.1504C225.592 53.2083 225.609 53.2777 225.598 53.3458C225.587 53.4139 225.548 53.4761 225.49 53.5213L223.963 54.4638C223.718 54.6167 223.668 54.7313 223.675 54.744C223.848 54.774 224.027 54.7468 224.179 54.6676C225.457 54.1768 226.792 53.8137 228.161 53.5849L228.622 53.4767C228.964 53.3793 229.321 53.3299 229.68 53.3302C230.23 53.3684 230.774 53.4624 231.3 53.6104C231.53 53.6677 231.754 53.725 231.97 53.7633L235.282 54.4383C235.322 54.4467 235.361 54.4621 235.395 54.4835C235.429 54.505 235.457 54.5322 235.479 54.5636C235.502 54.5949 235.516 54.6298 235.523 54.6662C235.53 54.7026 235.529 54.7399 235.519 54.7759C235.51 54.8118 235.492 54.8458 235.468 54.8758C235.444 54.9058 235.413 54.9313 235.378 54.9509C235.342 54.9704 235.303 54.9835 235.262 54.9896C235.22 54.9956 235.178 54.9944 235.138 54.986C234.036 54.7631 232.934 54.5339 231.826 54.3492C231.602 54.3046 231.372 54.2473 231.106 54.19C230.638 54.0572 230.155 53.9697 229.666 53.9288C229.366 53.9332 229.07 53.9805 228.787 54.069C228.622 54.1072 228.456 54.1517 228.283 54.1772C226.961 54.4056 225.672 54.7623 224.438 55.2408C224.226 55.3175 223.998 55.3564 223.769 55.3554V55.3554Z" fill="#231F20"/>
<path d="M227.239 37.7462C226.692 38.2366 225.317 45.9553 224.813 49.5982Z" fill="white"/>
<path d="M224.813 49.8848H224.77C224.687 49.8752 224.611 49.8371 224.56 49.7786C224.509 49.7201 224.486 49.6461 224.496 49.5727C224.806 47.3055 226.289 38.2047 227.016 37.5487C227.078 37.5064 227.154 37.4852 227.232 37.4889C227.31 37.4927 227.384 37.5212 227.44 37.5693C227.496 37.6173 227.531 37.6816 227.538 37.7504C227.544 37.8191 227.523 37.8878 227.477 37.9436C227.009 38.5104 225.684 45.6242 225.13 49.6428C225.118 49.7097 225.079 49.7708 225.021 49.8151C224.963 49.8594 224.889 49.8841 224.813 49.8848Z" fill="#231F20"/>
<path d="M206.532 56.8648L206.777 58.3105L229.37 61.2273L228.989 59.737L206.532 56.8648Z" fill="white"/>
<path d="M229.37 61.5394H229.32L206.726 58.6162C206.652 58.6061 206.584 58.5753 206.53 58.5284C206.477 58.4814 206.443 58.4207 206.431 58.355L206.186 56.9094C206.176 56.8614 206.179 56.812 206.196 56.7653C206.212 56.7187 206.241 56.6763 206.28 56.6419C206.32 56.6086 206.368 56.5834 206.42 56.568C206.472 56.5526 206.528 56.5474 206.582 56.5527L229.039 59.4313C229.109 59.4402 229.173 59.4674 229.225 59.5095C229.276 59.5516 229.312 59.6065 229.327 59.667L229.68 61.1636C229.695 61.2114 229.695 61.2618 229.681 61.3098C229.667 61.3578 229.64 61.4018 229.601 61.4375C229.542 61.4964 229.459 61.5329 229.37 61.5394ZM207.05 58.0366L228.888 60.8579L228.672 60.0109L206.914 57.2278L207.05 58.0366Z" fill="#231F20"/>
<path d="M206.532 56.8648C206.532 56.8648 211.673 52.9608 211.846 52.999C212.018 53.0372 235.123 55.4828 235.123 55.4828L228.96 59.737L206.532 56.8648Z" fill="white"/>
<path d="M228.96 60.0491L206.482 57.1514C206.415 57.1419 206.352 57.116 206.301 57.0766C206.25 57.0371 206.213 56.9858 206.194 56.9285C206.174 56.8719 206.174 56.8114 206.193 56.7548C206.212 56.6981 206.25 56.6477 206.302 56.61C211.586 52.5978 211.702 52.6297 211.925 52.6742C212.27 52.7252 227.282 54.3173 235.166 55.1516C235.236 55.1597 235.301 55.1857 235.353 55.2266C235.406 55.2674 235.444 55.3211 235.462 55.3809C235.482 55.4395 235.482 55.5025 235.46 55.5608C235.438 55.619 235.395 55.6697 235.339 55.7057L229.205 59.9599C229.173 59.9883 229.134 60.0108 229.092 60.0261C229.05 60.0414 229.005 60.0492 228.96 60.0491ZM207.36 56.6546L228.902 59.4122L234.259 55.6993C227.304 54.9606 213.48 53.4958 211.939 53.3175C211.421 53.6041 209.081 55.3427 207.36 56.6546Z" fill="#231F20"/>
<path d="M229.37 61.2273L235.267 56.8648L235.123 55.4828L228.989 59.737L229.37 61.2273Z" fill="white"/>
<path d="M229.37 61.5393C229.335 61.5454 229.298 61.5454 229.262 61.5393C229.205 61.5242 229.153 61.4955 229.112 61.4562C229.072 61.4169 229.044 61.3686 229.032 61.3164L228.65 59.8262C228.634 59.7693 228.637 59.7094 228.659 59.6539C228.68 59.5984 228.72 59.5498 228.773 59.5141L234.907 55.2408C234.957 55.2062 235.017 55.1842 235.079 55.177C235.142 55.1698 235.206 55.1777 235.264 55.1998C235.322 55.222 235.373 55.2576 235.41 55.3029C235.447 55.3482 235.47 55.4015 235.476 55.4573L235.613 56.8393C235.619 56.8894 235.611 56.94 235.59 56.9866C235.568 57.0333 235.534 57.0746 235.49 57.1068L229.594 61.4757C229.529 61.5179 229.451 61.5403 229.37 61.5393V61.5393ZM229.37 59.858L229.579 60.6668L234.893 56.731L234.828 56.0942L229.37 59.858Z" fill="#231F20"/>
<path d="M206.532 56.8648L202.19 43.9938L226.008 47.5857L228.989 59.737L206.532 56.8648Z" fill="white"/>
<path d="M228.96 60.0491L206.482 57.1514C206.414 57.1434 206.351 57.1181 206.3 57.0784C206.248 57.0387 206.211 56.9866 206.194 56.9285L201.874 44.0638C201.857 44.0132 201.855 43.9597 201.868 43.9083C201.881 43.8569 201.909 43.8093 201.949 43.7698C201.988 43.7304 202.038 43.7005 202.094 43.6829C202.151 43.6652 202.211 43.6605 202.27 43.669L226.08 47.28C226.148 47.29 226.211 47.3178 226.261 47.3598C226.311 47.4018 226.346 47.4561 226.361 47.5156L229.327 59.6988C229.34 59.7472 229.339 59.7977 229.324 59.8456C229.309 59.8935 229.28 59.9373 229.241 59.9727C229.203 60.0029 229.159 60.0254 229.11 60.0386C229.061 60.0518 229.01 60.0554 228.96 60.0491V60.0491ZM206.77 56.5846L228.514 59.3677L225.713 47.8532L202.673 44.3823L206.77 56.5846Z" fill="#231F20"/>
<path d="M240.034 56.5655H239.976L235.159 55.8331C235.079 55.8201 235.006 55.7835 234.952 55.7291C234.899 55.6747 234.868 55.6058 234.864 55.5337L234.713 50.4388C234.709 50.3605 234.74 50.2839 234.799 50.2255C234.858 50.1672 234.941 50.1317 235.03 50.1268L243.547 49.3498L239.76 37.829C239.735 37.7504 239.746 37.6665 239.791 37.5951C239.835 37.5237 239.909 37.4705 239.998 37.4468C240.042 37.4351 240.089 37.4312 240.135 37.4354C240.181 37.4396 240.226 37.4518 240.266 37.4714C240.307 37.4909 240.343 37.5173 240.373 37.5492C240.402 37.581 240.424 37.6177 240.437 37.657L244.332 49.509C244.347 49.5516 244.35 49.5966 244.343 49.6407C244.335 49.6848 244.317 49.7268 244.289 49.7638C244.26 49.8014 244.223 49.8333 244.18 49.8574C244.136 49.8815 244.088 49.8974 244.037 49.9039L235.397 50.6872L235.541 55.2535L240.077 55.9413C240.124 55.9451 240.17 55.9571 240.212 55.9765C240.254 55.996 240.291 56.0226 240.322 56.0549C240.352 56.0871 240.375 56.1243 240.389 56.1644C240.404 56.2045 240.409 56.2466 240.404 56.2884C240.4 56.3302 240.387 56.3709 240.365 56.4081C240.343 56.4453 240.312 56.4783 240.276 56.5052C240.24 56.5321 240.198 56.5524 240.152 56.5649C240.107 56.5775 240.059 56.582 240.012 56.5782L240.034 56.5655Z" fill="#231F20"/>
<path d="M208.433 76.6776C208.036 76.353 207.62 76.0469 207.187 75.7605C206.251 75.1236 204.242 74.2257 203.666 75.6904C203.306 76.5948 203.861 77.7985 204.242 78.6328C204.996 80.2283 206.145 81.6538 207.605 82.8042C208.879 83.8232 212.94 85.2943 212.645 82.4539C212.567 81.9399 212.381 81.4432 212.098 80.9891C211.181 79.3674 209.94 77.9065 208.433 76.6776V76.6776Z" fill="white"/>
<path d="M211.147 84.39C209.765 84.291 208.452 83.8097 207.396 83.0144C205.9 81.8359 204.721 80.3756 203.947 78.741C203.558 77.8876 202.968 76.6075 203.364 75.5949C203.435 75.3827 203.563 75.1888 203.737 75.0301C203.912 74.8715 204.127 74.7527 204.365 74.6842C205.538 74.3721 207.086 75.3211 207.382 75.5376C207.822 75.8282 208.245 76.1385 208.649 76.4674V76.4674C210.189 77.7184 211.458 79.2076 212.393 80.8618C212.693 81.3478 212.889 81.8791 212.969 82.4285C213.084 83.5366 212.566 84.0143 212.105 84.2117C211.806 84.3378 211.478 84.399 211.147 84.39V84.39ZM204.869 75.1873C204.762 75.1862 204.655 75.1991 204.552 75.2255C204.409 75.2673 204.28 75.3408 204.178 75.4388C204.076 75.5369 204.004 75.6564 203.969 75.786C203.652 76.5884 204.185 77.7539 204.538 78.5245C205.274 80.0813 206.396 81.472 207.821 82.594C208.728 83.3264 210.859 84.1353 211.824 83.7086C212.234 83.5239 212.4 83.1226 212.335 82.4794C212.257 82.0012 212.081 81.5395 211.817 81.1165C210.923 79.5218 209.703 78.0878 208.217 76.8878C207.828 76.5693 207.418 76.2509 207 75.9898C206.391 75.5475 205.651 75.269 204.869 75.1873V75.1873Z" fill="#231F20"/>
<path d="M222.149 78.2634C221.871 78.0916 221.536 78.0085 221.198 78.0277C220.987 78.0724 220.793 78.167 220.637 78.3016C220.347 78.566 220.127 78.8847 219.995 79.2341C219.863 79.5836 219.822 79.9548 219.874 80.3204C219.977 81.0501 220.233 81.7564 220.63 82.403C221.731 84.4282 223.222 86.3897 225.432 87.4979C225.829 87.7062 226.262 87.8547 226.714 87.9373C230.645 88.5742 229.018 85.1224 228.053 83.5621C226.685 81.3412 224.639 79.5051 222.149 78.2634Z" fill="white"/>
<path d="M227.556 88.2812C227.254 88.2787 226.953 88.2531 226.656 88.2048C226.171 88.1167 225.706 87.9574 225.281 87.7335C223.337 86.7655 221.724 85.0651 220.342 82.5304C219.932 81.8499 219.664 81.11 219.55 80.3459C219.492 79.9373 219.541 79.5225 219.692 79.133C219.843 78.7435 220.092 78.3895 220.421 78.0978C220.618 77.924 220.868 77.8045 221.141 77.7539C221.55 77.7194 221.96 77.8117 222.3 78.015C224.838 79.2826 226.928 81.1504 228.334 83.4092C229.054 84.5428 230.083 86.5935 229.219 87.6698C229.02 87.885 228.764 88.0534 228.474 88.1601C228.184 88.2667 227.869 88.3083 227.556 88.2812V88.2812ZM221.335 78.3016H221.249C221.098 78.3362 220.961 78.4067 220.853 78.5054C220.597 78.7388 220.404 79.0206 220.29 79.3295C220.175 79.6385 220.141 79.9664 220.19 80.2886C220.288 80.9849 220.532 81.6589 220.91 82.2756C222.228 84.7084 223.79 86.3261 225.576 87.2304C225.94 87.4253 226.34 87.5632 226.757 87.638C227.743 87.7972 228.391 87.6889 228.679 87.3323C229.241 86.6381 228.571 84.9886 227.758 83.6767C226.419 81.5127 224.424 79.7219 221.998 78.5054C221.798 78.3916 221.571 78.3217 221.335 78.3016V78.3016Z" fill="#231F20"/>
<path d="M220.572 67.3412C220.485 67.3414 220.401 67.3128 220.337 67.2608C220.273 67.2089 220.234 67.1375 220.226 67.0609C220.226 66.9208 219.83 63.5009 220.493 61.5521C220.506 61.5132 220.527 61.4769 220.556 61.4453C220.584 61.4137 220.62 61.3874 220.66 61.3679C220.7 61.3484 220.744 61.336 220.789 61.3316C220.835 61.3271 220.881 61.3306 220.925 61.3419C220.969 61.3532 221.01 61.3721 221.046 61.3974C221.081 61.4227 221.111 61.454 221.133 61.4895C221.155 61.5249 221.169 61.5639 221.174 61.6042C221.179 61.6444 221.175 61.6852 221.162 61.724C220.543 63.5582 220.91 66.9718 220.918 67.0036C220.926 67.0854 220.897 67.1668 220.838 67.2299C220.778 67.2931 220.693 67.3331 220.601 67.3412H220.572Z" fill="white"/>
<path d="M178.402 43.3378H35.3664C32.3642 43.3378 29.9304 45.4906 29.9304 48.1461V134.957C29.9304 137.612 32.3642 139.765 35.3664 139.765H178.402C181.404 139.765 183.838 137.612 183.838 134.957V48.1461C183.838 45.4906 181.404 43.3378 178.402 43.3378Z" fill="white"/>
<path d="M178.402 140.077H35.3664C33.8417 140.069 32.3821 139.529 31.3039 138.576C30.2257 137.622 29.6159 136.331 29.6064 134.982V48.1461C29.6064 46.7949 30.2133 45.499 31.2935 44.5435C32.3737 43.588 33.8388 43.0512 35.3664 43.0512H178.402C179.929 43.0512 181.394 43.588 182.475 44.5435C183.555 45.499 184.162 46.7949 184.162 48.1461V134.963C184.164 135.634 184.018 136.299 183.729 136.919C183.441 137.539 183.017 138.103 182.482 138.578C181.947 139.053 181.311 139.43 180.611 139.688C179.911 139.945 179.16 140.077 178.402 140.077V140.077ZM35.3664 43.6499C34.0176 43.6499 32.7239 44.1234 31.7695 44.9664C30.8151 45.8094 30.2779 46.9531 30.276 48.1461V134.963C30.2779 136.156 30.8151 137.3 31.7695 138.143C32.7239 138.986 34.0176 139.46 35.3664 139.46H178.402C179.749 139.458 181.041 138.984 181.994 138.141C182.947 137.298 183.483 136.155 183.485 134.963V48.1461C183.483 46.9542 182.947 45.8115 181.994 44.9687C181.041 44.1258 179.749 43.6516 178.402 43.6499H35.3664Z" fill="#231F20"/>
<path d="M178.142 55.8076H35.6184V134.696H178.142V55.8076Z" fill="#231F20"/>
<path d="M178.142 135.014H35.6184C35.5229 135.014 35.4313 134.981 35.3638 134.921C35.2963 134.861 35.2584 134.78 35.2584 134.696V55.8076C35.2584 55.7231 35.2963 55.6421 35.3638 55.5824C35.4313 55.5227 35.5229 55.4892 35.6184 55.4892H178.178C178.274 55.4892 178.365 55.5227 178.433 55.5824C178.5 55.6421 178.538 55.7231 178.538 55.8076V134.696C178.539 134.74 178.528 134.785 178.508 134.825C178.488 134.866 178.458 134.903 178.421 134.933C178.383 134.963 178.339 134.986 178.291 135C178.243 135.014 178.193 135.019 178.142 135.014ZM36 134.377H177.84V56.126H36V134.377Z" fill="#231F20"/>
<path d="M178.142 48.4072H35.6184V55.8076H178.142V48.4072Z" fill="#3A86FF"/>
<path d="M178.142 56.126H35.6184C35.5229 56.126 35.4313 56.0925 35.3638 56.0328C35.2963 55.973 35.2584 55.892 35.2584 55.8076V48.4072C35.2584 48.3228 35.2963 48.2418 35.3638 48.1821C35.4313 48.1224 35.5229 48.0888 35.6184 48.0888H178.178C178.274 48.0888 178.365 48.1224 178.433 48.1821C178.5 48.2418 178.538 48.3228 178.538 48.4072V55.8076C178.539 55.8522 178.528 55.8964 178.508 55.9373C178.488 55.9782 178.458 56.0148 178.421 56.0448C178.383 56.0748 178.339 56.0976 178.291 56.1116C178.243 56.1256 178.193 56.1305 178.142 56.126ZM36 55.4892H177.84V48.7257H36V55.4892Z" fill="#3A86FF"/>
<path d="M64.1952 63.6601H51.9552C51.9092 63.661 51.8635 63.6537 51.8207 63.6387C51.778 63.6237 51.739 63.6013 51.7062 63.5729C51.6733 63.5444 51.6472 63.5104 51.6294 63.4729C51.6116 63.4354 51.6024 63.3951 51.6024 63.3544C51.6024 63.2716 51.6396 63.1923 51.7057 63.1338C51.7719 63.0752 51.8617 63.0424 51.9552 63.0424H64.1952C64.2412 63.0423 64.2868 63.0505 64.3292 63.0662C64.3716 63.082 64.41 63.1051 64.4422 63.1341C64.4744 63.1632 64.4997 63.1976 64.5166 63.2355C64.5335 63.2733 64.5418 63.3137 64.5408 63.3544C64.5418 63.3948 64.5335 63.4349 64.5165 63.4724C64.4995 63.5099 64.4741 63.544 64.4418 63.5725C64.4095 63.6011 64.371 63.6236 64.3286 63.6386C64.2863 63.6537 64.2409 63.661 64.1952 63.6601Z" fill="white"/>
<path d="M91.8072 63.6601H67.3272C67.2815 63.661 67.2361 63.6537 67.1938 63.6386C67.1514 63.6236 67.1129 63.6011 67.0806 63.5725C67.0483 63.544 67.0229 63.5099 67.0059 63.4724C66.9889 63.4349 66.9806 63.3948 66.9816 63.3544C66.9806 63.3137 66.9889 63.2733 67.0058 63.2355C67.0227 63.1976 67.048 63.1632 67.0802 63.1341C67.1124 63.1051 67.1508 63.082 67.1932 63.0662C67.2357 63.0505 67.2812 63.0423 67.3272 63.0424H91.8072C91.9007 63.0424 91.9905 63.0752 92.0566 63.1338C92.1228 63.1923 92.16 63.2716 92.16 63.3544C92.16 63.3951 92.1508 63.4354 92.133 63.4729C92.1152 63.5104 92.0891 63.5444 92.0562 63.5729C92.0234 63.6013 91.9844 63.6237 91.9416 63.6387C91.8989 63.6537 91.8532 63.661 91.8072 63.6601V63.6601Z" fill="#3A86FF"/>
<path d="M100.267 68.1946H75.7872C75.6917 68.1946 75.6002 68.161 75.5327 68.1013C75.4651 68.0416 75.4272 67.9606 75.4272 67.8761C75.4272 67.7917 75.4651 67.7107 75.5327 67.651C75.6002 67.5913 75.6917 67.5577 75.7872 67.5577H100.267C100.363 67.5577 100.454 67.5913 100.522 67.651C100.589 67.7107 100.627 67.7917 100.627 67.8761C100.627 67.9606 100.589 68.0416 100.522 68.1013C100.454 68.161 100.363 68.1946 100.267 68.1946Z" fill="#3A86FF"/>
<path d="M67.068 68.1946H54.828C54.7325 68.1946 54.641 68.161 54.5735 68.1013C54.5059 68.0416 54.468 67.9606 54.468 67.8761C54.468 67.7917 54.5059 67.7107 54.5735 67.651C54.641 67.5913 54.7325 67.5577 54.828 67.5577H67.068C67.1635 67.5577 67.2551 67.5913 67.3226 67.651C67.3901 67.7107 67.428 67.7917 67.428 67.8761C67.428 67.9606 67.3901 68.0416 67.3226 68.1013C67.2551 68.161 67.1635 68.1946 67.068 68.1946Z" fill="white"/>
<path d="M69.948 72.7227H57.708C57.6144 72.7227 57.5247 72.6898 57.4585 72.6313C57.3924 72.5727 57.3552 72.4934 57.3552 72.4106C57.3552 72.3699 57.3644 72.3296 57.3822 72.2921C57.4 72.2546 57.4261 72.2206 57.4589 72.1922C57.4918 72.1637 57.5308 72.1413 57.5735 72.1263C57.6163 72.1113 57.662 72.1041 57.708 72.1049H69.948C69.9936 72.104 70.039 72.1114 70.0814 72.1264C70.1238 72.1415 70.1623 72.164 70.1946 72.1925C70.2268 72.2211 70.2523 72.2551 70.2693 72.2926C70.2863 72.3301 70.2946 72.3702 70.2936 72.4106C70.2946 72.4513 70.2863 72.4917 70.2694 72.5295C70.2524 72.5674 70.2271 72.6018 70.195 72.6309C70.1628 72.6599 70.1243 72.683 70.0819 72.6988C70.0395 72.7146 69.994 72.7227 69.948 72.7227V72.7227Z" fill="white"/>
<path d="M104.638 72.7227H74.0304C73.9844 72.7227 73.9389 72.7146 73.8965 72.6988C73.8541 72.683 73.8156 72.6599 73.7834 72.6309C73.7513 72.6018 73.726 72.5674 73.709 72.5295C73.6921 72.4917 73.6838 72.4513 73.6848 72.4106C73.6838 72.3702 73.6921 72.3301 73.7091 72.2926C73.7261 72.2551 73.7516 72.2211 73.7838 72.1925C73.8161 72.164 73.8546 72.1415 73.897 72.1264C73.9394 72.1114 73.9847 72.104 74.0304 72.1049H104.638C104.684 72.1041 104.729 72.1113 104.772 72.1263C104.815 72.1413 104.854 72.1637 104.887 72.1922C104.919 72.2206 104.946 72.2546 104.963 72.2921C104.981 72.3296 104.99 72.3699 104.99 72.4106C104.99 72.4934 104.953 72.5727 104.887 72.6313C104.821 72.6898 104.731 72.7227 104.638 72.7227Z" fill="#3A86FF"/>
<path d="M72.8208 77.2508H60.5808C60.4885 77.2491 60.4006 77.2155 60.336 77.1571C60.2714 77.0988 60.2352 77.0204 60.2352 76.9387C60.2352 76.8576 60.2716 76.7799 60.3364 76.7225C60.4012 76.6652 60.4891 76.633 60.5808 76.633H72.8208C72.8668 76.6321 72.9125 76.6394 72.9553 76.6544C72.998 76.6694 73.037 76.6918 73.0698 76.7202C73.1027 76.7487 73.1288 76.7827 73.1466 76.8202C73.1644 76.8577 73.1736 76.898 73.1736 76.9387C73.1736 77.0215 73.1364 77.1008 73.0703 77.1594C73.0041 77.2179 72.9144 77.2508 72.8208 77.2508V77.2508Z" fill="white"/>
<path d="M110.966 77.2508H74.5776C74.484 77.2508 74.3943 77.2179 74.3281 77.1594C74.262 77.1008 74.2248 77.0215 74.2248 76.9387C74.2248 76.898 74.234 76.8577 74.2518 76.8202C74.2696 76.7827 74.2957 76.7487 74.3286 76.7202C74.3614 76.6918 74.4004 76.6694 74.4431 76.6544C74.4859 76.6394 74.5316 76.6321 74.5776 76.633H110.966C111.012 76.6321 111.058 76.6394 111.101 76.6544C111.144 76.6694 111.183 76.6918 111.215 76.7202C111.248 76.7487 111.274 76.7827 111.292 76.8202C111.31 76.8577 111.319 76.898 111.319 76.9387C111.319 77.0215 111.282 77.1008 111.216 77.1594C111.15 77.2179 111.06 77.2508 110.966 77.2508V77.2508Z" fill="#3A86FF"/>
<path d="M69.5736 81.7789H57.3336C57.2381 81.7789 57.1466 81.7453 57.079 81.6856C57.0115 81.6259 56.9736 81.5449 56.9736 81.4604C56.9736 81.376 57.0115 81.295 57.079 81.2353C57.1466 81.1755 57.2381 81.142 57.3336 81.142H69.5736C69.6691 81.142 69.7607 81.1755 69.8282 81.2353C69.8957 81.295 69.9336 81.376 69.9336 81.4604C69.9336 81.5449 69.8957 81.6259 69.8282 81.6856C69.7607 81.7453 69.6691 81.7789 69.5736 81.7789Z" fill="white"/>
<path d="M91.8072 81.7789H72.072C71.9765 81.7789 71.885 81.7453 71.8174 81.6856C71.7499 81.6259 71.712 81.5449 71.712 81.4604C71.712 81.376 71.7499 81.295 71.8174 81.2353C71.885 81.1755 71.9765 81.142 72.072 81.142H91.8072C91.9027 81.142 91.9943 81.1755 92.0618 81.2353C92.1293 81.295 92.1672 81.376 92.1672 81.4604C92.1672 81.5449 92.1293 81.6259 92.0618 81.6856C91.9943 81.7453 91.9027 81.7789 91.8072 81.7789V81.7789Z" fill="#3A86FF"/>
<path d="M119.081 81.7789H99.36C99.2645 81.7789 99.173 81.7453 99.1054 81.6856C99.0379 81.6259 99 81.5449 99 81.4604C99 81.376 99.0379 81.295 99.1054 81.2353C99.173 81.1755 99.2645 81.142 99.36 81.142H119.095C119.191 81.142 119.282 81.1755 119.35 81.2353C119.417 81.295 119.455 81.376 119.455 81.4604C119.455 81.5449 119.417 81.6259 119.35 81.6856C119.282 81.7453 119.191 81.7789 119.095 81.7789H119.081Z" fill="#3A86FF"/>
<path d="M69.5736 86.307H57.3336C57.2381 86.307 57.1466 86.2734 57.079 86.2137C57.0115 86.154 56.9736 86.073 56.9736 85.9885C56.9736 85.9041 57.0115 85.8231 57.079 85.7633C57.1466 85.7036 57.2381 85.6701 57.3336 85.6701H69.5736C69.6691 85.6701 69.7607 85.7036 69.8282 85.7633C69.8957 85.8231 69.9336 85.9041 69.9336 85.9885C69.9336 86.073 69.8957 86.154 69.8282 86.2137C69.7607 86.2734 69.6691 86.307 69.5736 86.307Z" fill="white"/>
<path d="M91.8072 86.307H74.5776C74.4821 86.307 74.3906 86.2734 74.3231 86.2137C74.2555 86.154 74.2176 86.073 74.2176 85.9885C74.2176 85.9041 74.2555 85.8231 74.3231 85.7633C74.3906 85.7036 74.4821 85.6701 74.5776 85.6701H91.8072C91.9027 85.6701 91.9943 85.7036 92.0618 85.7633C92.1293 85.8231 92.1672 85.9041 92.1672 85.9885C92.1672 86.073 92.1293 86.154 92.0618 86.2137C91.9943 86.2734 91.9027 86.307 91.8072 86.307V86.307Z" fill="#3A86FF"/>
<path d="M101.758 86.307H94.716C94.6205 86.307 94.5289 86.2734 94.4614 86.2137C94.3939 86.154 94.356 86.073 94.356 85.9885C94.356 85.9041 94.3939 85.8231 94.4614 85.7633C94.5289 85.7036 94.6205 85.6701 94.716 85.6701H101.758C101.853 85.6701 101.945 85.7036 102.012 85.7633C102.08 85.8231 102.118 85.9041 102.118 85.9885C102.118 86.073 102.08 86.154 102.012 86.2137C101.945 86.2734 101.853 86.307 101.758 86.307Z" fill="#3A86FF"/>
<path d="M69.5736 90.835H57.3336C57.2876 90.8359 57.2419 90.8286 57.1991 90.8136C57.1564 90.7986 57.1174 90.7763 57.0846 90.7478C57.0517 90.7193 57.0256 90.6853 57.0078 90.6478C56.99 90.6103 56.9808 90.57 56.9808 90.5293C56.9808 90.4466 57.018 90.3672 57.0841 90.3087C57.1503 90.2502 57.24 90.2173 57.3336 90.2173H69.5736C69.6196 90.2173 69.6651 90.2254 69.7075 90.2411C69.7499 90.2569 69.7884 90.28 69.8206 90.3091C69.8527 90.3381 69.878 90.3726 69.895 90.4104C69.9119 90.4482 69.9202 90.4887 69.9192 90.5293C69.9202 90.5697 69.9119 90.6099 69.8949 90.6474C69.8779 90.6848 69.8525 90.7189 69.8202 90.7474C69.7879 90.776 69.7494 90.7985 69.707 90.8135C69.6646 90.8286 69.6193 90.8359 69.5736 90.835V90.835Z" fill="white"/>
<path d="M97.992 90.835H72.792C72.7003 90.835 72.6124 90.8028 72.5476 90.7455C72.4828 90.6882 72.4464 90.6104 72.4464 90.5293C72.4464 90.4477 72.4826 90.3692 72.5472 90.3109C72.6118 90.2526 72.6997 90.2189 72.792 90.2173H97.992C98.0856 90.2173 98.1753 90.2502 98.2415 90.3087C98.3077 90.3672 98.3448 90.4466 98.3448 90.5293C98.3448 90.57 98.3357 90.6103 98.3178 90.6478C98.3 90.6853 98.2739 90.7193 98.2411 90.7478C98.2082 90.7763 98.1693 90.7986 98.1265 90.8136C98.0837 90.8286 98.038 90.8359 97.992 90.835V90.835Z" fill="#3A86FF"/>
<path d="M113.213 90.835H100.973C100.927 90.8359 100.881 90.8286 100.838 90.8136C100.796 90.7986 100.757 90.7763 100.724 90.7478C100.691 90.7193 100.665 90.6853 100.647 90.6478C100.629 90.6103 100.62 90.57 100.62 90.5293C100.62 90.4466 100.657 90.3672 100.723 90.3087C100.789 90.2502 100.879 90.2173 100.973 90.2173H113.213C113.305 90.2189 113.393 90.2526 113.458 90.3109C113.522 90.3692 113.558 90.4477 113.558 90.5293C113.558 90.6104 113.522 90.6882 113.457 90.7455C113.392 90.8028 113.304 90.835 113.213 90.835V90.835Z" fill="#3A86FF"/>
<path d="M60.9408 95.3631H54.4608C54.3653 95.3631 54.2738 95.3296 54.2062 95.2699C54.1387 95.2101 54.1008 95.1292 54.1008 95.0447C54.1008 94.9602 54.1387 94.8793 54.2062 94.8195C54.2738 94.7598 54.3653 94.7263 54.4608 94.7263H60.9408C61.0363 94.7263 61.1278 94.7598 61.1954 94.8195C61.2629 94.8793 61.3008 94.9602 61.3008 95.0447C61.3008 95.1292 61.2629 95.2101 61.1954 95.2699C61.1278 95.3296 61.0363 95.3631 60.9408 95.3631Z" fill="white"/>
<path d="M94.716 95.3631H66.3192C66.2237 95.3631 66.1322 95.3296 66.0646 95.2699C65.9971 95.2101 65.9592 95.1292 65.9592 95.0447C65.9592 94.9602 65.9971 94.8793 66.0646 94.8195C66.1322 94.7598 66.2237 94.7263 66.3192 94.7263H94.716C94.8115 94.7263 94.903 94.7598 94.9706 94.8195C95.0381 94.8793 95.076 94.9602 95.076 95.0447C95.076 95.1292 95.0381 95.2101 94.9706 95.2699C94.903 95.3296 94.8115 95.3631 94.716 95.3631Z" fill="#3A86FF"/>
<path d="M66.6936 99.8976H54.4536C54.3581 99.8976 54.2666 99.8641 54.199 99.8043C54.1315 99.7446 54.0936 99.6636 54.0936 99.5792C54.0936 99.4947 54.1315 99.4137 54.199 99.354C54.2666 99.2943 54.3581 99.2607 54.4536 99.2607H66.6936C66.7891 99.2607 66.8806 99.2943 66.9482 99.354C67.0157 99.4137 67.0536 99.4947 67.0536 99.5792C67.0536 99.6636 67.0157 99.7446 66.9482 99.8043C66.8806 99.8641 66.7891 99.8976 66.6936 99.8976Z" fill="white"/>
<path d="M80.7048 104.426H56.2248C56.1788 104.426 56.1333 104.418 56.0909 104.402C56.0484 104.386 56.01 104.363 55.9778 104.334C55.9457 104.305 55.9203 104.27 55.9034 104.233C55.8865 104.195 55.8782 104.154 55.8792 104.114C55.8782 104.073 55.8865 104.033 55.9035 103.996C55.9205 103.958 55.9459 103.924 55.9782 103.896C56.0105 103.867 56.049 103.844 56.0914 103.829C56.1338 103.814 56.1791 103.807 56.2248 103.808H80.7048C80.7508 103.807 80.7965 103.814 80.8393 103.829C80.882 103.844 80.921 103.867 80.9539 103.895C80.9867 103.924 81.0128 103.958 81.0306 103.995C81.0484 104.033 81.0576 104.073 81.0576 104.114C81.0576 104.196 81.0204 104.276 80.9543 104.334C80.8881 104.393 80.7984 104.426 80.7048 104.426Z" fill="white"/>
<path d="M101.758 104.426H84.7584C84.7124 104.426 84.6669 104.418 84.6245 104.402C84.5821 104.386 84.5436 104.363 84.5114 104.334C84.4793 104.305 84.454 104.27 84.437 104.233C84.4201 104.195 84.4118 104.154 84.4128 104.114C84.4118 104.073 84.4201 104.033 84.4371 103.996C84.4541 103.958 84.4795 103.924 84.5118 103.896C84.5441 103.867 84.5826 103.844 84.625 103.829C84.6674 103.814 84.7127 103.807 84.7584 103.808H101.758C101.804 103.807 101.849 103.814 101.892 103.829C101.935 103.844 101.974 103.867 102.007 103.895C102.039 103.924 102.066 103.958 102.083 103.995C102.101 104.033 102.11 104.073 102.11 104.114C102.11 104.196 102.073 104.276 102.007 104.334C101.941 104.393 101.851 104.426 101.758 104.426Z" fill="#3A86FF"/>
<path d="M125.237 104.426H104.191C104.145 104.426 104.1 104.418 104.057 104.402C104.015 104.386 103.976 104.363 103.944 104.334C103.912 104.305 103.887 104.27 103.87 104.233C103.853 104.195 103.845 104.154 103.846 104.114C103.845 104.073 103.853 104.033 103.87 103.996C103.887 103.958 103.912 103.924 103.945 103.896C103.977 103.867 104.015 103.844 104.058 103.829C104.1 103.814 104.146 103.807 104.191 103.808H125.237C125.328 103.808 125.416 103.84 125.481 103.897C125.546 103.955 125.582 104.033 125.582 104.114C125.582 104.195 125.546 104.274 125.482 104.332C125.417 104.39 125.329 104.424 125.237 104.426Z" fill="#3A86FF"/>
<path d="M92.9592 108.954H57.3192C57.2256 108.954 57.1359 108.921 57.0697 108.862C57.0036 108.804 56.9664 108.724 56.9664 108.642C56.9664 108.601 56.9756 108.561 56.9934 108.523C57.0112 108.486 57.0373 108.452 57.0702 108.423C57.103 108.395 57.142 108.372 57.1847 108.357C57.2275 108.342 57.2732 108.335 57.3192 108.336H92.9592C93.0052 108.335 93.0509 108.342 93.0937 108.357C93.1364 108.372 93.1754 108.395 93.2082 108.423C93.2411 108.452 93.2672 108.486 93.285 108.523C93.3028 108.561 93.312 108.601 93.312 108.642C93.312 108.724 93.2748 108.804 93.2087 108.862C93.1425 108.921 93.0528 108.954 92.9592 108.954Z" fill="white"/>
<path d="M111.427 108.954H95.3928C95.2992 108.954 95.2095 108.921 95.1433 108.862C95.0772 108.804 95.04 108.724 95.04 108.642C95.04 108.601 95.0491 108.561 95.067 108.523C95.0848 108.486 95.1109 108.452 95.1437 108.423C95.1766 108.395 95.2155 108.372 95.2583 108.357C95.3011 108.342 95.3468 108.335 95.3928 108.336H111.427C111.473 108.335 111.518 108.342 111.561 108.358C111.603 108.373 111.641 108.395 111.674 108.424C111.706 108.452 111.731 108.486 111.748 108.524C111.765 108.561 111.774 108.601 111.773 108.642C111.774 108.682 111.766 108.723 111.749 108.761C111.732 108.798 111.706 108.833 111.674 108.862C111.642 108.891 111.604 108.914 111.561 108.93C111.519 108.946 111.473 108.954 111.427 108.954V108.954Z" fill="#3A86FF"/>
<path d="M161.82 108.954H114.142C114.049 108.952 113.961 108.918 113.897 108.86C113.832 108.802 113.796 108.723 113.796 108.642C113.796 108.561 113.832 108.483 113.897 108.426C113.962 108.368 114.05 108.336 114.142 108.336H161.82C161.866 108.335 161.912 108.342 161.954 108.357C161.997 108.372 162.036 108.395 162.069 108.423C162.102 108.452 162.128 108.486 162.146 108.523C162.164 108.561 162.173 108.601 162.173 108.642C162.173 108.724 162.136 108.804 162.069 108.862C162.003 108.921 161.914 108.954 161.82 108.954Z" fill="#3A86FF"/>
<path d="M74.0304 113.482H57.1752C57.0797 113.482 56.9882 113.448 56.9207 113.389C56.8531 113.329 56.8152 113.248 56.8152 113.163C56.8152 113.079 56.8531 112.998 56.9207 112.938C56.9882 112.879 57.0797 112.845 57.1752 112.845H74.0304C74.1259 112.845 74.2175 112.879 74.285 112.938C74.3525 112.998 74.3904 113.079 74.3904 113.163C74.3904 113.248 74.3525 113.329 74.285 113.389C74.2175 113.448 74.1259 113.482 74.0304 113.482Z" fill="white"/>
<path d="M89.7984 113.482H77.3856C77.2901 113.482 77.1986 113.448 77.131 113.389C77.0635 113.329 77.0256 113.248 77.0256 113.163C77.0256 113.079 77.0635 112.998 77.131 112.938C77.1986 112.879 77.2901 112.845 77.3856 112.845H89.7984C89.8939 112.845 89.9854 112.879 90.053 112.938C90.1205 112.998 90.1584 113.079 90.1584 113.163C90.1584 113.248 90.1205 113.329 90.053 113.389C89.9854 113.448 89.8939 113.482 89.7984 113.482Z" fill="#3A86FF"/>
<path d="M105.552 113.482H93.1392C93.0437 113.482 92.9522 113.448 92.8846 113.389C92.8171 113.329 92.7792 113.248 92.7792 113.163C92.7792 113.079 92.8171 112.998 92.8846 112.938C92.9522 112.879 93.0437 112.845 93.1392 112.845H105.552C105.647 112.845 105.739 112.879 105.807 112.938C105.874 112.998 105.912 113.079 105.912 113.163C105.912 113.248 105.874 113.329 105.807 113.389C105.739 113.448 105.647 113.482 105.552 113.482Z" fill="#3A86FF"/>
<path d="M86.976 118.01H57.1752C57.1292 118.011 57.0835 118.004 57.0407 117.989C56.998 117.974 56.959 117.951 56.9261 117.923C56.8933 117.894 56.8672 117.86 56.8494 117.823C56.8316 117.785 56.8224 117.745 56.8224 117.704C56.8224 117.622 56.8596 117.542 56.9257 117.484C56.9919 117.425 57.0816 117.392 57.1752 117.392H86.976C87.0696 117.392 87.1593 117.425 87.2255 117.484C87.2916 117.542 87.3288 117.622 87.3288 117.704C87.3288 117.745 87.3196 117.785 87.3018 117.823C87.284 117.86 87.2579 117.894 87.225 117.923C87.1922 117.951 87.1532 117.974 87.1105 117.989C87.0677 118.004 87.022 118.011 86.976 118.01V118.01Z" fill="white"/>
<path d="M105.552 118.01H90.648C90.6024 118.011 90.557 118.004 90.5146 117.988C90.4722 117.973 90.4337 117.951 90.4015 117.922C90.3692 117.894 90.3437 117.86 90.3267 117.822C90.3097 117.785 90.3014 117.745 90.3024 117.704C90.3015 117.664 90.3097 117.623 90.3266 117.585C90.3436 117.548 90.3689 117.513 90.4011 117.484C90.4332 117.455 90.4717 117.432 90.5141 117.416C90.5565 117.4 90.602 117.392 90.648 117.392H105.552C105.598 117.392 105.644 117.4 105.686 117.416C105.728 117.432 105.767 117.455 105.799 117.484C105.831 117.513 105.856 117.548 105.873 117.585C105.89 117.623 105.899 117.664 105.898 117.704C105.899 117.745 105.89 117.785 105.873 117.822C105.856 117.86 105.831 117.894 105.799 117.922C105.766 117.951 105.728 117.973 105.685 117.988C105.643 118.004 105.598 118.011 105.552 118.01V118.01Z" fill="#3A86FF"/>
<path d="M131.904 118.01H109.21C109.164 118.011 109.119 118.004 109.076 117.988C109.034 117.973 108.995 117.951 108.963 117.922C108.931 117.894 108.905 117.86 108.888 117.822C108.871 117.785 108.863 117.745 108.864 117.704C108.863 117.664 108.871 117.623 108.888 117.585C108.905 117.548 108.93 117.513 108.963 117.484C108.995 117.455 109.033 117.432 109.076 117.416C109.118 117.4 109.164 117.392 109.21 117.392H131.904C131.95 117.392 131.996 117.4 132.039 117.416C132.082 117.432 132.121 117.455 132.153 117.484C132.186 117.513 132.212 117.547 132.23 117.585C132.248 117.623 132.257 117.663 132.257 117.704C132.257 117.745 132.248 117.785 132.23 117.823C132.212 117.86 132.186 117.894 132.153 117.923C132.12 117.951 132.081 117.974 132.038 117.989C131.996 118.004 131.95 118.011 131.904 118.01V118.01Z" fill="#3A86FF"/>
<path d="M156.96 118.01H134.294C134.248 118.011 134.203 118.004 134.16 117.989C134.117 117.974 134.078 117.951 134.045 117.923C134.012 117.894 133.986 117.86 133.969 117.823C133.951 117.785 133.942 117.745 133.942 117.704C133.942 117.622 133.979 117.542 134.045 117.484C134.111 117.425 134.201 117.392 134.294 117.392H156.96C157.054 117.392 157.143 117.425 157.209 117.484C157.276 117.542 157.313 117.622 157.313 117.704C157.313 117.745 157.304 117.785 157.286 117.823C157.268 117.86 157.242 117.894 157.209 117.923C157.176 117.951 157.137 117.974 157.094 117.989C157.052 118.004 157.006 118.011 156.96 118.01V118.01Z" fill="#3A86FF"/>
<path d="M82.4904 122.538H64.7136C64.6676 122.539 64.6219 122.532 64.5791 122.517C64.5364 122.502 64.4974 122.479 64.4646 122.451C64.4317 122.422 64.4056 122.388 64.3878 122.351C64.37 122.313 64.3608 122.273 64.3608 122.232C64.3608 122.191 64.3699 122.151 64.3877 122.113C64.4054 122.075 64.4314 122.041 64.4641 122.012C64.4969 121.983 64.5358 121.96 64.5786 121.944C64.6214 121.928 64.6673 121.92 64.7136 121.92H82.4904C82.5364 121.92 82.5819 121.928 82.6243 121.944C82.6667 121.96 82.7052 121.983 82.7374 122.012C82.7695 122.041 82.7949 122.076 82.8118 122.113C82.8287 122.151 82.837 122.192 82.836 122.232C82.837 122.273 82.8287 122.313 82.8117 122.35C82.7947 122.388 82.7693 122.422 82.737 122.45C82.7047 122.479 82.6662 122.502 82.6238 122.517C82.5814 122.532 82.5361 122.539 82.4904 122.538V122.538Z" fill="white"/>
<path d="M103.601 122.538H85.824C85.7784 122.539 85.733 122.532 85.6906 122.517C85.6482 122.502 85.6097 122.479 85.5774 122.45C85.5452 122.422 85.5197 122.388 85.5027 122.35C85.4857 122.313 85.4774 122.273 85.4784 122.232C85.4775 122.192 85.4857 122.151 85.5026 122.113C85.5196 122.076 85.5449 122.041 85.5771 122.012C85.6092 121.983 85.6477 121.96 85.6901 121.944C85.7325 121.928 85.778 121.92 85.824 121.92H103.601C103.647 121.92 103.693 121.928 103.736 121.944C103.779 121.96 103.818 121.983 103.85 122.012C103.883 122.041 103.909 122.075 103.927 122.113C103.944 122.151 103.954 122.191 103.954 122.232C103.954 122.273 103.944 122.313 103.927 122.351C103.909 122.388 103.883 122.422 103.85 122.451C103.817 122.479 103.778 122.502 103.735 122.517C103.693 122.532 103.647 122.539 103.601 122.538Z" fill="#3A86FF"/>
<path d="M124.862 122.538H107.086C107.04 122.539 106.994 122.532 106.951 122.517C106.908 122.502 106.869 122.479 106.837 122.451C106.804 122.422 106.778 122.388 106.76 122.351C106.742 122.313 106.733 122.273 106.733 122.232C106.733 122.191 106.742 122.151 106.76 122.113C106.777 122.075 106.803 122.041 106.836 122.012C106.869 121.983 106.908 121.96 106.951 121.944C106.993 121.928 107.039 121.92 107.086 121.92H124.862C124.908 121.92 124.954 121.928 124.996 121.944C125.039 121.96 125.077 121.983 125.109 122.012C125.142 122.041 125.167 122.076 125.184 122.113C125.201 122.151 125.209 122.192 125.208 122.232C125.209 122.273 125.201 122.313 125.184 122.35C125.167 122.388 125.141 122.422 125.109 122.45C125.077 122.479 125.038 122.502 124.996 122.517C124.953 122.532 124.908 122.539 124.862 122.538V122.538Z" fill="#3A86FF"/>
<path d="M146.88 123.048H129.096C129.001 123.048 128.909 123.014 128.841 122.954C128.774 122.895 128.736 122.814 128.736 122.729C128.736 122.645 128.774 122.564 128.841 122.504C128.909 122.444 129.001 122.411 129.096 122.411H146.88C146.975 122.411 147.067 122.444 147.135 122.504C147.202 122.564 147.24 122.645 147.24 122.729C147.24 122.814 147.202 122.895 147.135 122.954C147.067 123.014 146.975 123.048 146.88 123.048Z" fill="#3A86FF"/>
<path d="M79.6104 127.066H67.3704C67.3247 127.067 67.2794 127.06 67.237 127.045C67.1946 127.03 67.1561 127.007 67.1238 126.979C67.0915 126.95 67.0661 126.916 67.0491 126.878C67.0321 126.841 67.0238 126.801 67.0248 126.76C67.0238 126.72 67.0321 126.679 67.049 126.642C67.0659 126.604 67.0913 126.569 67.1234 126.54C67.1556 126.511 67.1941 126.488 67.2365 126.472C67.2789 126.457 67.3244 126.448 67.3704 126.448H79.6104C79.704 126.448 79.7937 126.481 79.8599 126.54C79.926 126.598 79.9632 126.678 79.9632 126.76C79.9632 126.801 79.954 126.841 79.9362 126.879C79.9184 126.916 79.8923 126.95 79.8594 126.979C79.8266 127.007 79.7876 127.03 79.7449 127.045C79.7021 127.06 79.6564 127.067 79.6104 127.066V127.066Z" fill="white"/>
<path d="M94.7448 127.066H82.5048C82.4588 127.067 82.4131 127.06 82.3703 127.045C82.3275 127.03 82.2886 127.007 82.2557 126.979C82.2229 126.95 82.1968 126.916 82.179 126.879C82.1611 126.841 82.152 126.801 82.152 126.76C82.152 126.678 82.1891 126.598 82.2553 126.54C82.3215 126.481 82.4112 126.448 82.5048 126.448H94.7448C94.7908 126.448 94.8363 126.457 94.8787 126.472C94.9211 126.488 94.9596 126.511 94.9918 126.54C95.0239 126.569 95.0492 126.604 95.0662 126.642C95.0831 126.679 95.0914 126.72 95.0904 126.76C95.0914 126.801 95.0831 126.841 95.0661 126.878C95.0491 126.916 95.0236 126.95 94.9914 126.979C94.9591 127.007 94.9206 127.03 94.8782 127.045C94.8358 127.06 94.7904 127.067 94.7448 127.066V127.066Z" fill="#3A86FF"/>
<path d="M123.041 127.525L97.74 127.066C97.694 127.066 97.6485 127.058 97.6061 127.042C97.5637 127.027 97.5252 127.003 97.493 126.974C97.4609 126.945 97.4356 126.911 97.4186 126.873C97.4017 126.835 97.3935 126.795 97.3944 126.754C97.3933 126.713 97.402 126.671 97.4199 126.633C97.4378 126.595 97.4645 126.56 97.4984 126.531C97.5322 126.502 97.5725 126.48 97.6165 126.466C97.6606 126.452 97.7076 126.446 97.7544 126.448L123.055 126.907C123.151 126.907 123.242 126.941 123.31 127C123.377 127.06 123.415 127.141 123.415 127.225C123.415 127.31 123.377 127.391 123.31 127.451C123.242 127.51 123.151 127.544 123.055 127.544L123.041 127.525Z" fill="#3A86FF"/>
<path d="M132.48 77.2508H115.92C115.874 77.2508 115.828 77.2427 115.786 77.2269C115.744 77.2111 115.705 77.1881 115.673 77.159C115.641 77.1299 115.616 77.0955 115.599 77.0576C115.582 77.0198 115.573 76.9794 115.574 76.9387C115.573 76.8983 115.582 76.8582 115.599 76.8207C115.616 76.7832 115.641 76.7492 115.673 76.7206C115.706 76.692 115.744 76.6696 115.787 76.6545C115.829 76.6394 115.874 76.6321 115.92 76.633H132.48C132.526 76.6321 132.572 76.6394 132.614 76.6544C132.657 76.6694 132.696 76.6918 132.729 76.7203C132.762 76.7487 132.788 76.7827 132.806 76.8202C132.824 76.8577 132.833 76.898 132.833 76.9387C132.833 77.0215 132.796 77.1008 132.729 77.1594C132.663 77.2179 132.574 77.2508 132.48 77.2508V77.2508Z" fill="#3A86FF"/>
<path d="M144.72 77.2953C141.48 77.2953 139.075 77.2953 138.96 77.2316C138.916 77.2208 138.875 77.2024 138.839 77.1774C138.803 77.1525 138.773 77.1216 138.751 77.0864C138.705 77.0153 138.694 76.9313 138.719 76.8527C138.744 76.7742 138.803 76.7076 138.883 76.6676C138.963 76.6276 139.058 76.6174 139.147 76.6394C139.781 76.7094 150.71 76.6712 157.939 76.6394C157.985 76.6385 158.031 76.6458 158.074 76.6608C158.116 76.6758 158.155 76.6982 158.188 76.7266C158.221 76.7551 158.247 76.7891 158.265 76.8266C158.283 76.8641 158.292 76.9044 158.292 76.9451C158.292 77.0278 158.255 77.1072 158.189 77.1657C158.123 77.2242 158.033 77.2571 157.939 77.2571C154.08 77.2699 148.752 77.2953 144.72 77.2953Z" fill="#3A86FF"/>
<path d="M129.838 68.1946H105.79C105.694 68.1946 105.603 68.161 105.535 68.1013C105.468 68.0416 105.43 67.9606 105.43 67.8761C105.43 67.7917 105.468 67.7107 105.535 67.651C105.603 67.5913 105.694 67.5577 105.79 67.5577H129.838C129.933 67.5577 130.025 67.5913 130.092 67.651C130.16 67.7107 130.198 67.7917 130.198 67.8761C130.198 67.9606 130.16 68.0416 130.092 68.1013C130.025 68.161 129.933 68.1946 129.838 68.1946Z" fill="#3A86FF"/>
<path d="M158.602 68.1946H134.64C134.545 68.1946 134.453 68.161 134.385 68.1013C134.318 68.0416 134.28 67.9606 134.28 67.8761C134.28 67.7917 134.318 67.7107 134.385 67.651C134.453 67.5913 134.545 67.5577 134.64 67.5577H158.573C158.668 67.5577 158.76 67.5913 158.827 67.651C158.895 67.7107 158.933 67.7917 158.933 67.8761C158.933 67.9606 158.895 68.0416 158.827 68.1013C158.76 68.161 158.668 68.1946 158.573 68.1946H158.602Z" fill="#3A86FF"/>
<path d="M107.28 63.6856C102.838 63.6856 99.4536 63.6856 99.3168 63.6856C99.2254 63.6715 99.144 63.6263 99.0901 63.5595C99.0362 63.4928 99.0142 63.4099 99.0288 63.3289C99.043 63.2499 99.0917 63.179 99.1644 63.1313C99.2371 63.0837 99.328 63.0632 99.4176 63.0742C100.03 63.1124 117.785 63.0742 127.102 63.0742C127.195 63.0742 127.285 63.1071 127.351 63.1656C127.417 63.2241 127.454 63.3035 127.454 63.3863C127.454 63.4269 127.445 63.4672 127.427 63.5047C127.41 63.5422 127.384 63.5762 127.351 63.6047C127.318 63.6332 127.279 63.6556 127.236 63.6705C127.193 63.6855 127.148 63.6928 127.102 63.692C123.192 63.6728 114.005 63.6856 107.28 63.6856Z" fill="#3A86FF"/>
<path d="M133.589 63.6792C133.524 63.678 133.462 63.6606 133.408 63.629C133.355 63.5974 133.312 63.553 133.286 63.5009C133.251 63.422 133.251 63.3343 133.286 63.2552C133.32 63.1761 133.388 63.1115 133.474 63.0742C133.754 62.9532 139.349 62.9405 150.091 63.0742C150.183 63.0774 150.27 63.1115 150.334 63.1695C150.398 63.2276 150.435 63.3051 150.437 63.3863C150.437 63.4269 150.428 63.4672 150.41 63.5047C150.392 63.5422 150.366 63.5762 150.333 63.6047C150.3 63.6332 150.261 63.6556 150.218 63.6705C150.176 63.6855 150.13 63.6928 150.084 63.6919V63.6919C143.827 63.6346 134.316 63.5837 133.726 63.6919C133.68 63.6994 133.632 63.6949 133.589 63.6792Z" fill="white"/>
<path d="M110.39 95.3631H97.992C97.8965 95.3631 97.8049 95.3296 97.7374 95.2699C97.6699 95.2101 97.632 95.1292 97.632 95.0447C97.632 94.9602 97.6699 94.8793 97.7374 94.8195C97.8049 94.7598 97.8965 94.7263 97.992 94.7263H110.39C110.486 94.7263 110.577 94.7598 110.645 94.8195C110.712 94.8793 110.75 94.9602 110.75 95.0447C110.75 95.1292 110.712 95.2101 110.645 95.2699C110.577 95.3296 110.486 95.3631 110.39 95.3631Z" fill="#3A86FF"/>
<path d="M81.9432 99.8976H72.8208C72.7253 99.8976 72.6338 99.8641 72.5663 99.8043C72.4987 99.7446 72.4608 99.6636 72.4608 99.5792C72.4608 99.4947 72.4987 99.4137 72.5663 99.354C72.6338 99.2943 72.7253 99.2607 72.8208 99.2607H81.9432C82.0387 99.2607 82.1303 99.2943 82.1978 99.354C82.2653 99.4137 82.3032 99.4947 82.3032 99.5792C82.3032 99.6636 82.2653 99.7446 82.1978 99.8043C82.1303 99.8641 82.0387 99.8976 81.9432 99.8976Z" fill="#3A86FF"/>
<path d="M107.086 99.8976H85.4064C85.3109 99.8976 85.2193 99.8641 85.1518 99.8043C85.0843 99.7446 85.0464 99.6636 85.0464 99.5792C85.0464 99.4947 85.0843 99.4137 85.1518 99.354C85.2193 99.2943 85.3109 99.2607 85.4064 99.2607H107.086C107.181 99.2607 107.273 99.2943 107.34 99.354C107.408 99.4137 107.446 99.4947 107.446 99.5792C107.446 99.6636 107.408 99.7446 107.34 99.8043C107.273 99.8641 107.181 99.8976 107.086 99.8976V99.8976Z" fill="white"/>
<path d="M153.425 99.8976H111.427C111.332 99.8976 111.24 99.8641 111.173 99.8043C111.105 99.7446 111.067 99.6636 111.067 99.5792C111.067 99.4947 111.105 99.4137 111.173 99.354C111.24 99.2943 111.332 99.2607 111.427 99.2607H153.425C153.52 99.2607 153.612 99.2943 153.679 99.354C153.747 99.4137 153.785 99.4947 153.785 99.5792C153.785 99.6636 153.747 99.7446 153.679 99.8043C153.612 99.8641 153.52 99.8976 153.425 99.8976V99.8976Z" fill="#3A86FF"/>
<path d="M41.04 53.1901C41.716 53.1901 42.264 52.7054 42.264 52.1074C42.264 51.5095 41.716 51.0248 41.04 51.0248C40.364 51.0248 39.816 51.5095 39.816 52.1074C39.816 52.7054 40.364 53.1901 41.04 53.1901Z" fill="#231F20"/>
<path d="M45.3312 53.1901C46.0072 53.1901 46.5552 52.7054 46.5552 52.1074C46.5552 51.5095 46.0072 51.0248 45.3312 51.0248C44.6552 51.0248 44.1072 51.5095 44.1072 52.1074C44.1072 52.7054 44.6552 53.1901 45.3312 53.1901Z" fill="white"/>
<path d="M49.6224 53.1901C50.2984 53.1901 50.8464 52.7054 50.8464 52.1074C50.8464 51.5095 50.2984 51.0248 49.6224 51.0248C48.9464 51.0248 48.3984 51.5095 48.3984 52.1074C48.3984 52.7054 48.9464 53.1901 49.6224 53.1901Z" fill="white"/>
<path d="M129.78 153.725H83.9808L89.1576 139.765H124.603L129.78 153.725Z" fill="white"/>
<path d="M129.78 154.044H83.9808C83.9235 154.045 83.8667 154.035 83.8151 154.013C83.7635 153.991 83.7188 153.958 83.6848 153.917C83.6508 153.876 83.6285 153.829 83.6198 153.779C83.6112 153.729 83.6165 153.678 83.6352 153.63L88.812 139.67C88.8351 139.605 88.8811 139.548 88.9433 139.508C89.0055 139.468 89.0806 139.446 89.1576 139.447H124.603C124.68 139.446 124.755 139.468 124.817 139.508C124.88 139.548 124.926 139.605 124.949 139.67L130.126 153.63C130.144 153.678 130.15 153.729 130.141 153.779C130.132 153.829 130.11 153.876 130.076 153.917C130.042 153.958 129.997 153.991 129.946 154.013C129.894 154.035 129.837 154.045 129.78 154.044V154.044ZM84.4776 153.407H129.283L124.344 140.084H89.4168L84.4776 153.407Z" fill="#231F20"/>
<path d="M133.56 153.725H80.2008C78.9721 153.725 77.976 154.605 77.976 155.69C77.976 156.775 78.9721 157.655 80.2008 157.655H133.56C134.789 157.655 135.785 156.775 135.785 155.69C135.785 154.605 134.789 153.725 133.56 153.725Z" fill="white"/>
<path d="M133.567 157.979H80.2008C79.5153 157.979 78.8578 157.739 78.3731 157.31C77.8883 156.881 77.616 156.3 77.616 155.693C77.616 155.087 77.8883 154.505 78.3731 154.076C78.8578 153.648 79.5153 153.407 80.2008 153.407H133.567C134.253 153.407 134.91 153.648 135.395 154.076C135.88 154.505 136.152 155.087 136.152 155.693C136.152 156.3 135.88 156.881 135.395 157.31C134.91 157.739 134.253 157.979 133.567 157.979V157.979ZM80.2008 154.044C79.7062 154.044 79.2319 154.217 78.8822 154.527C78.5325 154.836 78.336 155.256 78.336 155.693C78.336 156.131 78.5325 156.55 78.8822 156.859C79.2319 157.169 79.7062 157.343 80.2008 157.343H133.567C134.062 157.343 134.536 157.169 134.886 156.859C135.236 156.55 135.432 156.131 135.432 155.693C135.432 155.256 135.236 154.836 134.886 154.527C134.536 154.217 134.062 154.044 133.567 154.044H80.2008Z" fill="#231F20"/>
<path d="M85.356 150.025C86.076 149.681 125.748 143.274 125.748 143.274L124.445 139.765H88.9992L85.356 150.025Z" fill="#231F20"/>
<path d="M85.3488 150.343C85.2664 150.343 85.187 150.316 85.1256 150.267C85.0733 150.227 85.0357 150.174 85.0177 150.115C84.9998 150.056 85.0022 149.994 85.0248 149.936L88.668 139.676C88.6886 139.613 88.7322 139.557 88.7921 139.518C88.8519 139.479 88.9247 139.458 88.9992 139.46H124.445C124.518 139.458 124.59 139.478 124.65 139.516C124.71 139.553 124.754 139.608 124.776 139.67L126.079 143.172C126.093 143.215 126.097 143.259 126.091 143.303C126.084 143.346 126.068 143.388 126.042 143.426C126.016 143.464 125.982 143.496 125.941 143.522C125.901 143.547 125.854 143.565 125.806 143.574C114.934 145.331 86.4864 149.974 85.4856 150.312C85.4426 150.33 85.3962 150.34 85.3488 150.343V150.343ZM89.28 140.077L85.896 149.598C90.6624 148.643 118.426 144.147 125.309 143.032L124.214 140.077H89.28Z" fill="#231F20"/>
</svg>
